<svg width="550" height="690" viewBox="0 0 550 690" fill="none" xmlns="http://www.w3.org/2000/svg">
<g clip-path="url(#clip0_1362_2)">
<rect width="550" height="690" fill="white"/>
<g filter="url(#filter0_d_1362_2)">
<rect width="587" height="51" transform="matrix(1 0 0 -1 -27 703)" fill="url(#paint0_linear_1362_2)"/>
</g>
<path d="M387.5 -0.5L-1 66V-0.5H387.5Z" fill="url(#paint1_linear_1362_2)"/>
<path d="M465.521 -7.99616L-61.5094 81.9331L-62.7263 80.6875L463.114 -10.0494L465.521 -7.99616Z" fill="url(#paint2_linear_1362_2)"/>
<path d="M271.88 680.35L270.4 681.42V680.24L272.08 679.01H273.14V686H271.88V680.35ZM277.28 684.34H273.94V683.59L277.31 679.01H278.55V683.39H279.63V684.34H278.55V686H277.28V684.34ZM277.46 683.39V680.48L275.33 683.39H277.46Z" fill="white"/>
</g>
<defs>
<filter id="filter0_d_1362_2" x="-31" y="652" width="595" height="59" filterUnits="userSpaceOnUse" color-interpolation-filters="sRGB">
<feFlood flood-opacity="0" result="BackgroundImageFix"/>
<feColorMatrix in="SourceAlpha" type="matrix" values="0 0 0 0 0 0 0 0 0 0 0 0 0 0 0 0 0 0 127 0" result="hardAlpha"/>
<feOffset dy="4"/>
<feGaussianBlur stdDeviation="2"/>
<feComposite in2="hardAlpha" operator="out"/>
<feColorMatrix type="matrix" values="0 0 0 0 0 0 0 0 0 0 0 0 0 0 0 0 0 0 0.25 0"/>
<feBlend mode="normal" in2="BackgroundImageFix" result="effect1_dropShadow_1362_2"/>
<feBlend mode="normal" in="SourceGraphic" in2="effect1_dropShadow_1362_2" result="shape"/>
</filter>
<linearGradient id="paint0_linear_1362_2" x1="0" y1="25.5" x2="587" y2="25.5" gradientUnits="userSpaceOnUse">
<stop stop-color="#0E5BCF"/>
<stop offset="1" stop-color="#01CCFE"/>
</linearGradient>
<linearGradient id="paint1_linear_1362_2" x1="71.5" y1="-78.25" x2="-1.4917" y2="63.1401" gradientUnits="userSpaceOnUse">
<stop stop-color="#000091" stop-opacity="0.61"/>
<stop offset="0.730769" stop-color="#00EFB0"/>
</linearGradient>
<linearGradient id="paint2_linear_1362_2" x1="96.0164" y1="-54.2483" x2="75.0757" y2="98.406" gradientUnits="userSpaceOnUse">
<stop stop-color="#000091" stop-opacity="0.61"/>
<stop offset="0.730769" stop-color="#00EFB0"/>
</linearGradient>
<clipPath id="clip0_1362_2">
<rect width="550" height="690" fill="white"/>
</clipPath>
</defs>
</svg>
