<svg width="477" height="211" viewBox="0 0 477 211" fill="none" xmlns="http://www.w3.org/2000/svg">
<path d="M6.48 10.9575H8.44L14.02 24.9375H11.94L10.54 21.4575H4.36L3 24.9375H0.9L6.48 10.9575ZM9.98 19.7575L7.46 13.2175L4.94 19.7575H9.98ZM16.2219 10.9575H22.6419C23.8819 10.9575 24.8419 11.2775 25.5219 11.9175C26.2019 12.5575 26.5419 13.4908 26.5419 14.7175C26.5419 15.4108 26.3752 16.0242 26.0419 16.5575C25.7219 17.0775 25.2952 17.4642 24.7619 17.7175C26.2552 18.1575 27.0019 19.2442 27.0019 20.9775C27.0019 21.7908 26.8219 22.4975 26.4619 23.0975C26.1152 23.6842 25.6352 24.1375 25.0219 24.4575C24.4085 24.7775 23.7285 24.9375 22.9819 24.9375H16.2219V10.9575ZM22.3819 16.9575C23.0352 16.9575 23.5485 16.7775 23.9219 16.4175C24.2952 16.0575 24.4819 15.5242 24.4819 14.8175C24.4819 14.0042 24.2952 13.4375 23.9219 13.1175C23.5619 12.7842 23.0019 12.6175 22.2419 12.6175H18.2619V16.9575H22.3819ZM22.5219 23.2775C23.3085 23.2775 23.9085 23.1042 24.3219 22.7575C24.7352 22.4108 24.9419 21.8175 24.9419 20.9775C24.9419 20.1375 24.7219 19.5375 24.2819 19.1775C23.8552 18.8175 23.2085 18.6375 22.3419 18.6375H18.2619V23.2775H22.5219ZM35.6623 25.2375C34.2757 25.2375 33.0223 24.9375 31.9023 24.3375C30.7823 23.7242 29.9023 22.8642 29.2623 21.7575C28.6223 20.6508 28.3023 19.3842 28.3023 17.9575C28.3023 16.5308 28.6223 15.2642 29.2623 14.1575C29.9023 13.0508 30.7823 12.1908 31.9023 11.5775C33.0223 10.9642 34.2757 10.6575 35.6623 10.6575C37.049 10.6575 38.3023 10.9642 39.4223 11.5775C40.5423 12.1908 41.4223 13.0508 42.0623 14.1575C42.7023 15.2642 43.0223 16.5308 43.0223 17.9575C43.0223 19.3842 42.7023 20.6508 42.0623 21.7575C41.4223 22.8642 40.5423 23.7242 39.4223 24.3375C38.3023 24.9375 37.049 25.2375 35.6623 25.2375ZM35.6623 23.3975C36.649 23.3975 37.5423 23.1775 38.3423 22.7375C39.1557 22.2842 39.7957 21.6508 40.2623 20.8375C40.729 20.0108 40.9623 19.0508 40.9623 17.9575C40.9623 16.8775 40.729 15.9308 40.2623 15.1175C39.809 14.2908 39.1823 13.6575 38.3823 13.2175C37.5823 12.7642 36.689 12.5375 35.7023 12.5375C34.7023 12.5375 33.7957 12.7575 32.9823 13.1975C32.1823 13.6375 31.5423 14.2708 31.0623 15.0975C30.5957 15.9242 30.3623 16.8775 30.3623 17.9575C30.3623 19.0508 30.5957 20.0108 31.0623 20.8375C31.529 21.6508 32.1623 22.2842 32.9623 22.7375C33.7757 23.1775 34.6757 23.3975 35.6623 23.3975ZM50.9058 25.2375C48.9991 25.2375 47.5591 24.7508 46.5858 23.7775C45.6124 22.7908 45.1258 21.4375 45.1258 19.7175V10.9575H47.1658V19.7975C47.1658 20.9842 47.4991 21.8842 48.1658 22.4975C48.8324 23.0975 49.7458 23.3975 50.9058 23.3975C52.0524 23.3975 52.9591 23.0975 53.6258 22.4975C54.2924 21.8842 54.6258 20.9842 54.6258 19.7975V10.9575H56.6658V19.7175C56.6658 21.4242 56.1791 22.7708 55.2058 23.7575C54.2324 24.7442 52.7991 25.2375 50.9058 25.2375ZM62.7111 12.6775H58.3711V10.9575H69.1111V12.6775H64.7711V24.9375H62.7111V12.6775ZM83.9917 25.2375C82.0851 25.2375 80.6451 24.7508 79.6717 23.7775C78.6984 22.7908 78.2117 21.4375 78.2117 19.7175V10.9575H80.2517V19.7975C80.2517 20.9842 80.5851 21.8842 81.2517 22.4975C81.9184 23.0975 82.8317 23.3975 83.9917 23.3975C85.1384 23.3975 86.0451 23.0975 86.7117 22.4975C87.3784 21.8842 87.7117 20.9842 87.7117 19.7975V10.9575H89.7517V19.7175C89.7517 21.4242 89.2651 22.7708 88.2917 23.7575C87.3184 24.7442 85.8851 25.2375 83.9917 25.2375ZM96.137 25.2375C95.337 25.2375 94.5437 25.1642 93.757 25.0175C92.9837 24.8842 92.3504 24.6975 91.857 24.4575V22.6175C93.137 23.2175 94.517 23.5175 95.997 23.5175C98.077 23.5175 99.117 22.8175 99.117 21.4175C99.117 20.9375 99.0037 20.5508 98.777 20.2575C98.5504 19.9642 98.2237 19.7108 97.797 19.4975C97.3704 19.2708 96.677 18.9642 95.717 18.5775C94.397 18.0442 93.4437 17.4575 92.857 16.8175C92.2704 16.1775 91.977 15.3708 91.977 14.3975C91.977 13.6642 92.177 13.0175 92.577 12.4575C92.977 11.8842 93.537 11.4442 94.257 11.1375C94.977 10.8175 95.8037 10.6575 96.737 10.6575C97.497 10.6575 98.1837 10.7175 98.797 10.8375C99.4104 10.9575 100.01 11.1508 100.597 11.4175V13.1775C99.437 12.6575 98.2637 12.3975 97.077 12.3975C96.117 12.3975 95.3837 12.5708 94.877 12.9175C94.3704 13.2642 94.117 13.7575 94.117 14.3975C94.117 14.8375 94.2237 15.2108 94.437 15.5175C94.6637 15.8108 94.9904 16.0775 95.417 16.3175C95.857 16.5442 96.5037 16.8308 97.357 17.1775C98.3037 17.5642 99.0504 17.9308 99.597 18.2775C100.144 18.6242 100.557 19.0508 100.837 19.5575C101.13 20.0508 101.277 20.6708 101.277 21.4175C101.277 22.6308 100.844 23.5708 99.977 24.2375C99.1104 24.9042 97.8304 25.2375 96.137 25.2375Z" fill="black"/>
<line x1="109" y1="24.5" x2="431" y2="24.5" stroke="black" stroke-dasharray="2 2"/>
<path d="M451.72 29.3C450.52 29.3 449.48 29.0067 448.6 28.42C447.733 27.8333 447.067 26.9933 446.6 25.9C446.133 24.8067 445.9 23.5133 445.9 22.02C445.9 20.5267 446.127 19.2333 446.58 18.14C447.047 17.0333 447.713 16.1867 448.58 15.6C449.46 15.0133 450.507 14.72 451.72 14.72C452.933 14.72 453.973 15.0133 454.84 15.6C455.72 16.1867 456.387 17.0333 456.84 18.14C457.307 19.2333 457.54 20.5267 457.54 22.02C457.54 23.5133 457.307 24.8067 456.84 25.9C456.373 26.9933 455.7 27.8333 454.82 28.42C453.953 29.0067 452.92 29.3 451.72 29.3ZM451.72 27.5C452.907 27.5 453.833 27.0133 454.5 26.04C455.18 25.0533 455.52 23.72 455.52 22.04C455.52 20.36 455.187 19.0267 454.52 18.04C453.853 17.0533 452.92 16.56 451.72 16.56C450.52 16.56 449.587 17.0533 448.92 18.04C448.253 19.0267 447.92 20.36 447.92 22.04C447.92 23.72 448.253 25.0533 448.92 26.04C449.6 27.0133 450.533 27.5 451.72 27.5ZM462.358 17.22L459.338 19.4V17.46L462.638 15.02H464.398V29H462.358V17.22Z" fill="black"/>
<path d="M447.664 1.28189C448.542 0.934679 450.031 0.480641 450.989 0.266976C452.026 0.0533107 453.675 -0.0535219 455.111 0.0266026C456.441 0.0800189 458.143 0.320392 458.914 0.534057C459.659 0.774431 460.297 1.09493 460.297 1.22847C460.297 1.38872 459.287 1.49555 457.771 1.49555C456.388 1.49555 454.367 1.68251 453.329 1.92288C452.265 2.16325 450.43 2.80425 449.26 3.36512C448.09 3.89928 446.361 4.9409 445.43 5.66202C444.473 6.38314 443.116 7.69184 442.398 8.57321C441.68 9.45458 440.776 10.7099 440.377 11.3776C440.004 12.0453 439.419 13.3273 439.1 14.262C438.754 15.1701 438.356 16.9863 438.223 18.3217C438.01 20.2447 438.036 21.2062 438.382 23.0757C438.595 24.3577 439.1 26.1739 439.499 27.1354C439.898 28.0969 440.776 29.6459 441.441 30.6074C442.132 31.5689 443.223 32.8509 443.914 33.4919C444.579 34.1062 445.776 35.0143 446.521 35.5217C447.292 36.0025 448.808 36.7503 449.872 37.1776C450.936 37.605 451.787 38.0323 451.787 38.1658C451.787 38.2727 451.627 38.3528 451.468 38.3528C451.281 38.3528 450.217 38.059 449.127 37.6851C448.037 37.3379 446.228 36.4565 445.138 35.7354C444.047 35.0143 442.451 33.7056 441.6 32.8509C440.776 31.9962 439.845 30.9279 439.526 30.4739C439.233 30.0198 438.648 29.0049 438.249 28.2037C437.824 27.4024 437.185 25.8801 436.866 24.8652C436.308 23.2627 436.228 22.4881 436.228 19.2565C436.228 16.1049 436.334 15.1968 436.866 13.5142C437.185 12.4192 437.877 10.7366 438.382 9.77507C438.887 8.81358 439.792 7.42476 440.403 6.67693C441.042 5.90239 442.079 4.83407 442.744 4.29991C443.409 3.73903 444.419 2.99121 445.005 2.61729C445.59 2.24338 446.787 1.6558 447.664 1.28189Z" fill="url(#paint0_linear_1353_55)"/>
<path d="M448.994 4.13966C450.164 3.57879 452.026 2.85767 453.116 2.56388C454.739 2.13655 455.723 2.05642 458.303 2.13655C461.016 2.21667 461.893 2.35021 464.021 3.07133C465.51 3.55208 467.372 4.43345 468.542 5.20798C469.633 5.90239 471.255 7.26451 472.133 8.226C473.011 9.1875 474.101 10.6564 474.58 11.5378C475.058 12.3925 475.67 13.8347 475.989 14.7161C476.282 15.5974 476.654 17.2266 476.84 18.3217C477.053 19.8173 477.053 20.8322 476.84 22.3279C476.654 23.4229 476.415 24.785 476.255 25.3459C476.122 25.8801 475.883 26.3341 475.723 26.3341C475.564 26.3341 475.457 25.3993 475.457 24.0639C475.457 22.8086 475.271 20.859 475.032 19.7372C474.792 18.5888 474.367 17.0664 474.074 16.3186C473.782 15.5974 473.037 14.1285 472.399 13.1136C471.761 12.0987 470.324 10.3359 469.154 9.24091C467.798 7.9055 466.361 6.86389 464.952 6.11606C463.782 5.50177 461.973 4.80736 460.962 4.56699C459.925 4.32661 458.063 4.13966 456.707 4.13966C455.404 4.16636 453.542 4.35332 452.585 4.59369C451.627 4.83407 450.271 5.31481 449.526 5.63531C448.808 5.95581 447.478 6.70364 446.6 7.29122C445.723 7.9055 444.446 8.97383 443.755 9.69495C443.09 10.3894 442.026 11.7515 441.441 12.713C440.829 13.6745 440.058 15.1968 439.739 16.1316C439.419 17.0397 439.074 17.7875 438.967 17.7875C438.834 17.7875 438.754 17.6273 438.754 17.467C438.754 17.2801 438.941 16.4521 439.18 15.6509C439.419 14.8496 440.004 13.4074 440.51 12.4459C441.015 11.4844 441.946 10.0422 442.611 9.24091C443.276 8.43967 444.499 7.18438 445.324 6.48997C446.175 5.79556 447.824 4.72724 448.994 4.13966Z" fill="url(#paint1_linear_1353_55)"/>
<path d="M460.244 5.52848C459.686 5.36823 459.234 5.10115 459.26 4.9409C459.287 4.75394 459.579 4.72724 460.111 4.83407C460.59 4.9409 461.734 5.31481 462.691 5.68873C463.649 6.03593 465.191 6.86389 466.149 7.50488C467.106 8.14588 468.542 9.34774 469.367 10.2291C470.191 11.0838 471.308 12.4993 471.867 13.3807C472.425 14.262 473.17 15.6509 473.489 16.4521C473.808 17.2534 474.287 18.936 474.553 20.1912C474.872 21.8472 474.952 23.1024 474.846 24.8652C474.739 26.2006 474.42 28.177 474.128 29.272C473.808 30.3671 473.064 32.2366 472.452 33.4118C471.654 34.9341 470.723 36.1627 469.207 37.6851C467.771 39.154 466.468 40.1422 465.218 40.8099C464.207 41.3441 462.452 42.0652 461.361 42.3857C459.819 42.8665 458.755 43 456.574 43C454.739 43 453.249 42.8398 452.239 42.546C451.414 42.3056 450.723 42.0118 450.723 41.905C450.723 41.7714 452.186 41.6112 453.968 41.5311C456.68 41.3975 457.638 41.2373 459.633 40.5429C460.962 40.0621 462.691 39.2876 463.489 38.8335C464.287 38.3528 466.042 36.8571 467.372 35.5484C469.34 33.5987 469.979 32.7174 470.909 30.8745C471.521 29.6192 472.186 27.7497 472.399 26.7347C472.612 25.7198 472.798 23.9571 472.798 22.8621C472.798 21.767 472.612 20.0043 472.399 18.9894C472.186 17.9745 471.601 16.2652 471.096 15.2502C470.617 14.2353 469.659 12.6328 468.968 11.7248C468.303 10.79 467.053 9.48128 466.228 8.81358C465.377 8.14588 463.915 7.21109 462.957 6.73035C462 6.2496 460.776 5.71544 460.244 5.52848Z" fill="url(#paint2_linear_1353_55)"/>
<path d="M434.233 19.6571C434.393 18.6956 434.659 17.654 434.792 17.3335C434.925 16.9863 435.111 16.7192 435.217 16.7192C435.35 16.7192 435.457 17.9478 435.483 19.4701C435.51 21.2062 435.749 22.9689 436.095 24.331C436.414 25.5062 437.132 27.3757 437.691 28.4708C438.276 29.5658 439.34 31.195 440.058 32.0764C440.776 32.9577 442.185 34.3199 443.169 35.0944C444.18 35.8956 445.776 36.8838 446.733 37.3379C447.691 37.7919 449.233 38.3261 450.191 38.513C451.148 38.7267 452.93 38.8869 454.18 38.8869C455.617 38.8869 457.212 38.7 458.569 38.3528C459.739 38.0323 461.468 37.3646 462.425 36.8571C463.383 36.3497 464.819 35.4149 465.617 34.8006C466.415 34.1596 467.665 32.8509 468.383 31.9161C469.101 30.9813 470.085 29.3254 470.59 28.2838C471.069 27.2155 471.468 26.1472 471.468 25.9335C471.468 25.7198 471.574 25.4795 471.734 25.3993C471.894 25.3192 472.053 25.2925 472.133 25.3459C472.213 25.3726 472.08 26.1205 471.84 27.0018C471.601 27.8832 470.909 29.5658 470.298 30.7143C469.659 31.9695 468.489 33.5987 467.479 34.6938C466.521 35.7087 464.978 37.0708 464.021 37.7118C463.064 38.3261 461.548 39.154 460.643 39.5279C459.712 39.9019 458.037 40.4093 456.92 40.6497C455.404 40.9702 454.127 41.0503 452.186 40.9435C450.723 40.8366 448.755 40.5429 447.797 40.2491C446.84 39.982 445.483 39.4745 444.739 39.154C444.021 38.8335 442.744 38.1124 441.946 37.5515C441.148 37.0174 439.765 35.7888 438.887 34.854C438.01 33.9192 436.919 32.477 436.441 31.6757C435.988 30.8745 435.27 29.2453 434.898 28.0702C434.472 26.7615 434.127 25.0521 434.047 23.6633C433.941 22.2745 434.02 20.6987 434.233 19.6571Z" fill="url(#paint3_linear_1353_55)"/>
<path d="M1.3 70.2778H6.68C8.18667 70.2778 9.37333 70.6578 10.24 71.4178C11.12 72.1645 11.56 73.2311 11.56 74.6178C11.56 76.0311 11.1267 77.1045 10.26 77.8378C9.39333 78.5578 8.2 78.9178 6.68 78.9178H3.34V84.2578H1.3V70.2778ZM6.46 77.2178C7.39333 77.2178 8.13333 77.0245 8.68 76.6378C9.22667 76.2511 9.5 75.5778 9.5 74.6178C9.5 73.6578 9.22667 72.9845 8.68 72.5978C8.13333 72.1978 7.39333 71.9978 6.46 71.9978H3.34V77.2178H6.46ZM13.3508 70.2778H18.9708C20.4641 70.2778 21.6108 70.6378 22.4108 71.3578C23.2108 72.0778 23.6108 73.1311 23.6108 74.5178C23.6108 75.5445 23.3374 76.4178 22.7908 77.1378C22.2441 77.8445 21.4708 78.3245 20.4708 78.5778L23.5508 84.2578H21.4308L18.4508 78.7378H15.3908V84.2578H13.3508V70.2778ZM18.6308 77.0178C19.5241 77.0178 20.2308 76.8111 20.7508 76.3978C21.2841 75.9711 21.5508 75.3445 21.5508 74.5178C21.5508 73.6111 21.2908 72.9645 20.7708 72.5778C20.2641 72.1911 19.5508 71.9978 18.6308 71.9978H15.3908V77.0178H18.6308ZM32.4788 84.5578C31.0921 84.5578 29.8388 84.2578 28.7188 83.6578C27.5988 83.0445 26.7188 82.1845 26.0788 81.0778C25.4388 79.9711 25.1188 78.7045 25.1188 77.2778C25.1188 75.8511 25.4388 74.5845 26.0788 73.4778C26.7188 72.3711 27.5988 71.5111 28.7188 70.8978C29.8388 70.2845 31.0921 69.9778 32.4788 69.9778C33.8654 69.9778 35.1188 70.2845 36.2388 70.8978C37.3588 71.5111 38.2388 72.3711 38.8788 73.4778C39.5188 74.5845 39.8388 75.8511 39.8388 77.2778C39.8388 78.7045 39.5188 79.9711 38.8788 81.0778C38.2388 82.1845 37.3588 83.0445 36.2388 83.6578C35.1188 84.2578 33.8654 84.5578 32.4788 84.5578ZM32.4788 82.7178C33.4654 82.7178 34.3588 82.4978 35.1588 82.0578C35.9721 81.6045 36.6121 80.9711 37.0788 80.1578C37.5454 79.3311 37.7788 78.3711 37.7788 77.2778C37.7788 76.1978 37.5454 75.2511 37.0788 74.4378C36.6254 73.6111 35.9988 72.9778 35.1988 72.5378C34.3988 72.0845 33.5054 71.8578 32.5188 71.8578C31.5188 71.8578 30.6121 72.0778 29.7988 72.5178C28.9988 72.9578 28.3588 73.5911 27.8788 74.4178C27.4121 75.2445 27.1788 76.1978 27.1788 77.2778C27.1788 78.3711 27.4121 79.3311 27.8788 80.1578C28.3454 80.9711 28.9788 81.6045 29.7788 82.0578C30.5921 82.4978 31.4921 82.7178 32.4788 82.7178ZM42.0422 70.2778H46.5422C48.0489 70.2778 49.3555 70.5578 50.4622 71.1178C51.5689 71.6778 52.4155 72.4778 53.0022 73.5178C53.6022 74.5578 53.9022 75.7845 53.9022 77.1978C53.9022 79.5178 53.2289 81.2778 51.8822 82.4778C50.5489 83.6645 48.6755 84.2578 46.2622 84.2578H42.0422V70.2778ZM46.2422 82.5578C48.1089 82.5578 49.5089 82.0978 50.4422 81.1778C51.3755 80.2578 51.8422 78.9311 51.8422 77.1978C51.8422 75.5978 51.3822 74.3311 50.4622 73.3978C49.5555 72.4645 48.2555 71.9978 46.5622 71.9978H44.0822V82.5578H46.2422ZM61.7847 84.5578C59.878 84.5578 58.438 84.0711 57.4647 83.0978C56.4914 82.1111 56.0047 80.7578 56.0047 79.0378V70.2778H58.0447V79.1178C58.0447 80.3045 58.378 81.2045 59.0447 81.8178C59.7114 82.4178 60.6247 82.7178 61.7847 82.7178C62.9314 82.7178 63.838 82.4178 64.5047 81.8178C65.1714 81.2045 65.5047 80.3045 65.5047 79.1178V70.2778H67.5447V79.0378C67.5447 80.7445 67.058 82.0911 66.0847 83.0778C65.1114 84.0645 63.678 84.5578 61.7847 84.5578ZM77.05 84.5578C75.61 84.5578 74.33 84.2578 73.21 83.6578C72.09 83.0578 71.2167 82.2111 70.59 81.1178C69.9633 80.0111 69.65 78.7311 69.65 77.2778C69.65 75.8245 69.9633 74.5445 70.59 73.4378C71.2167 72.3311 72.09 71.4778 73.21 70.8778C74.33 70.2778 75.61 69.9778 77.05 69.9778C78.97 69.9778 80.5767 70.4645 81.87 71.4378V73.3978C80.71 72.3711 79.1633 71.8578 77.23 71.8578C76.15 71.8578 75.19 72.0778 74.35 72.5178C73.5233 72.9578 72.8767 73.5911 72.41 74.4178C71.9433 75.2311 71.71 76.1845 71.71 77.2778C71.71 78.3711 71.9433 79.3311 72.41 80.1578C72.89 80.9845 73.5433 81.6178 74.37 82.0578C75.21 82.4978 76.1633 82.7178 77.23 82.7178C78.2167 82.7178 79.0967 82.5911 79.87 82.3378C80.6567 82.0711 81.3833 81.6511 82.05 81.0778V83.0578C80.85 84.0578 79.1833 84.5578 77.05 84.5578ZM87.6916 71.9978H83.3516V70.2778H94.0916V71.9978H89.7516V84.2578H87.6916V71.9978ZM99.262 84.5578C98.462 84.5578 97.6687 84.4845 96.882 84.3378C96.1087 84.2045 95.4754 84.0178 94.982 83.7778V81.9378C96.262 82.5378 97.642 82.8378 99.122 82.8378C101.202 82.8378 102.242 82.1378 102.242 80.7378C102.242 80.2578 102.129 79.8711 101.902 79.5778C101.675 79.2845 101.349 79.0311 100.922 78.8178C100.495 78.5911 99.802 78.2845 98.842 77.8978C97.522 77.3645 96.5687 76.7778 95.982 76.1378C95.3954 75.4978 95.102 74.6911 95.102 73.7178C95.102 72.9845 95.302 72.3378 95.702 71.7778C96.102 71.2045 96.662 70.7645 97.382 70.4578C98.102 70.1378 98.9287 69.9778 99.862 69.9778C100.622 69.9778 101.309 70.0378 101.922 70.1578C102.535 70.2778 103.135 70.4711 103.722 70.7378V72.4978C102.562 71.9778 101.389 71.7178 100.202 71.7178C99.242 71.7178 98.5087 71.8911 98.002 72.2378C97.4954 72.5845 97.242 73.0778 97.242 73.7178C97.242 74.1578 97.3487 74.5311 97.562 74.8378C97.7887 75.1311 98.1154 75.3978 98.542 75.6378C98.982 75.8645 99.6287 76.1511 100.482 76.4978C101.429 76.8845 102.175 77.2511 102.722 77.5978C103.269 77.9445 103.682 78.3711 103.962 78.8778C104.255 79.3711 104.402 79.9911 104.402 80.7378C104.402 81.9511 103.969 82.8911 103.102 83.5578C102.235 84.2245 100.955 84.5578 99.262 84.5578Z" fill="black"/>
<line x1="109" y1="84.5" x2="428" y2="84.5" stroke="black" stroke-dasharray="2 2"/>
<path d="M449.72 85.3C448.52 85.3 447.48 85.0067 446.6 84.42C445.733 83.8333 445.067 82.9933 444.6 81.9C444.133 80.8067 443.9 79.5133 443.9 78.02C443.9 76.5267 444.127 75.2333 444.58 74.14C445.047 73.0333 445.713 72.1867 446.58 71.6C447.46 71.0133 448.507 70.72 449.72 70.72C450.933 70.72 451.973 71.0133 452.84 71.6C453.72 72.1867 454.387 73.0333 454.84 74.14C455.307 75.2333 455.54 76.5267 455.54 78.02C455.54 79.5133 455.307 80.8067 454.84 81.9C454.373 82.9933 453.7 83.8333 452.82 84.42C451.953 85.0067 450.92 85.3 449.72 85.3ZM449.72 83.5C450.907 83.5 451.833 83.0133 452.5 82.04C453.18 81.0533 453.52 79.72 453.52 78.04C453.52 76.36 453.187 75.0267 452.52 74.04C451.853 73.0533 450.92 72.56 449.72 72.56C448.52 72.56 447.587 73.0533 446.92 74.04C446.253 75.0267 445.92 76.36 445.92 78.04C445.92 79.72 446.253 81.0533 446.92 82.04C447.6 83.0133 448.533 83.5 449.72 83.5ZM457.338 83.66L460.358 80.76C460.624 80.4933 460.998 80.1467 461.478 79.72C462.238 79.0267 462.818 78.4667 463.218 78.04C463.618 77.6133 463.944 77.16 464.198 76.68C464.451 76.1867 464.578 75.66 464.578 75.1C464.578 74.2733 464.338 73.6467 463.858 73.22C463.378 72.78 462.678 72.56 461.758 72.56C461.131 72.56 460.484 72.6733 459.818 72.9C459.164 73.1267 458.551 73.46 457.978 73.9V71.94C459.098 71.1267 460.464 70.72 462.078 70.72C463.518 70.72 464.638 71.1067 465.438 71.88C466.238 72.64 466.638 73.68 466.638 75C466.638 75.64 466.498 76.2533 466.218 76.84C465.951 77.4267 465.571 78.0067 465.078 78.58C464.584 79.14 463.918 79.8267 463.078 80.64L460.358 83.3H467.158V85H457.338V83.66Z" fill="black"/>
<path d="M447.664 57.2819C448.542 56.9347 450.031 56.4806 450.989 56.267C452.026 56.0533 453.675 55.9465 455.111 56.0266C456.441 56.08 458.143 56.3204 458.914 56.5341C459.659 56.7744 460.297 57.0949 460.297 57.2285C460.297 57.3887 459.287 57.4956 457.771 57.4956C456.388 57.4956 454.367 57.6825 453.329 57.9229C452.265 58.1633 450.43 58.8042 449.26 59.3651C448.09 59.8993 446.361 60.9409 445.43 61.662C444.473 62.3831 443.116 63.6918 442.398 64.5732C441.68 65.4546 440.776 66.7099 440.377 67.3776C440.004 68.0453 439.419 69.3273 439.1 70.262C438.754 71.1701 438.356 72.9863 438.223 74.3217C438.01 76.2447 438.036 77.2062 438.382 79.0757C438.595 80.3577 439.1 82.1739 439.499 83.1354C439.898 84.0969 440.776 85.6459 441.441 86.6074C442.132 87.5689 443.223 88.8509 443.914 89.4919C444.579 90.1062 445.776 91.0143 446.521 91.5217C447.292 92.0025 448.808 92.7503 449.872 93.1776C450.936 93.605 451.787 94.0323 451.787 94.1658C451.787 94.2727 451.627 94.3528 451.468 94.3528C451.281 94.3528 450.217 94.059 449.127 93.6851C448.037 93.3379 446.228 92.4565 445.138 91.7354C444.047 91.0143 442.451 89.7056 441.6 88.8509C440.776 87.9962 439.845 86.9279 439.526 86.4739C439.233 86.0198 438.648 85.0049 438.249 84.2037C437.824 83.4024 437.185 81.8801 436.866 80.8652C436.308 79.2627 436.228 78.4881 436.228 75.2565C436.228 72.1049 436.334 71.1968 436.866 69.5142C437.185 68.4192 437.877 66.7366 438.382 65.7751C438.887 64.8136 439.792 63.4248 440.403 62.6769C441.042 61.9024 442.079 60.8341 442.744 60.2999C443.409 59.739 444.419 58.9912 445.005 58.6173C445.59 58.2434 446.787 57.6558 447.664 57.2819Z" fill="url(#paint4_linear_1353_55)"/>
<path d="M448.994 60.1397C450.164 59.5788 452.026 58.8577 453.116 58.5639C454.739 58.1365 455.723 58.0564 458.303 58.1365C461.016 58.2167 461.893 58.3502 464.021 59.0713C465.51 59.5521 467.372 60.4334 468.542 61.208C469.633 61.9024 471.255 63.2645 472.133 64.226C473.011 65.1875 474.101 66.6564 474.58 67.5378C475.058 68.3925 475.67 69.8347 475.989 70.7161C476.282 71.5974 476.654 73.2266 476.84 74.3217C477.053 75.8173 477.053 76.8322 476.84 78.3279C476.654 79.4229 476.415 80.785 476.255 81.3459C476.122 81.8801 475.883 82.3341 475.723 82.3341C475.564 82.3341 475.457 81.3993 475.457 80.0639C475.457 78.8086 475.271 76.859 475.032 75.7372C474.792 74.5888 474.367 73.0664 474.074 72.3186C473.782 71.5974 473.037 70.1285 472.399 69.1136C471.761 68.0987 470.324 66.3359 469.154 65.2409C467.798 63.9055 466.361 62.8639 464.952 62.1161C463.782 61.5018 461.973 60.8074 460.962 60.567C459.925 60.3266 458.063 60.1397 456.707 60.1397C455.404 60.1664 453.542 60.3533 452.585 60.5937C451.627 60.8341 450.271 61.3148 449.526 61.6353C448.808 61.9558 447.478 62.7036 446.6 63.2912C445.723 63.9055 444.446 64.9738 443.755 65.695C443.09 66.3894 442.026 67.7515 441.441 68.713C440.829 69.6745 440.058 71.1968 439.739 72.1316C439.419 73.0397 439.074 73.7875 438.967 73.7875C438.834 73.7875 438.754 73.6273 438.754 73.467C438.754 73.2801 438.941 72.4521 439.18 71.6509C439.419 70.8496 440.004 69.4074 440.51 68.4459C441.015 67.4844 441.946 66.0422 442.611 65.2409C443.276 64.4397 444.499 63.1844 445.324 62.49C446.175 61.7956 447.824 60.7272 448.994 60.1397Z" fill="url(#paint5_linear_1353_55)"/>
<path d="M460.244 61.5285C459.686 61.3682 459.234 61.1011 459.26 60.9409C459.287 60.7539 459.579 60.7272 460.111 60.8341C460.59 60.9409 461.734 61.3148 462.691 61.6887C463.649 62.0359 465.191 62.8639 466.149 63.5049C467.106 64.1459 468.542 65.3477 469.367 66.2291C470.191 67.0838 471.308 68.4993 471.867 69.3807C472.425 70.262 473.17 71.6509 473.489 72.4521C473.808 73.2534 474.287 74.936 474.553 76.1912C474.872 77.8472 474.952 79.1024 474.846 80.8652C474.739 82.2006 474.42 84.177 474.128 85.272C473.808 86.3671 473.064 88.2366 472.452 89.4118C471.654 90.9341 470.723 92.1627 469.207 93.6851C467.771 95.154 466.468 96.1422 465.218 96.8099C464.207 97.3441 462.452 98.0652 461.361 98.3857C459.819 98.8665 458.755 99 456.574 99C454.739 99 453.249 98.8398 452.239 98.546C451.414 98.3056 450.723 98.0118 450.723 97.905C450.723 97.7714 452.186 97.6112 453.968 97.5311C456.68 97.3975 457.638 97.2373 459.633 96.5429C460.962 96.0621 462.691 95.2876 463.489 94.8335C464.287 94.3528 466.042 92.8571 467.372 91.5484C469.34 89.5987 469.979 88.7174 470.909 86.8745C471.521 85.6192 472.186 83.7497 472.399 82.7347C472.612 81.7198 472.798 79.9571 472.798 78.8621C472.798 77.767 472.612 76.0043 472.399 74.9894C472.186 73.9745 471.601 72.2652 471.096 71.2502C470.617 70.2353 469.659 68.6328 468.968 67.7248C468.303 66.79 467.053 65.4813 466.228 64.8136C465.377 64.1459 463.915 63.2111 462.957 62.7303C462 62.2496 460.776 61.7154 460.244 61.5285Z" fill="url(#paint6_linear_1353_55)"/>
<path d="M434.233 75.6571C434.393 74.6956 434.659 73.654 434.792 73.3335C434.925 72.9863 435.111 72.7192 435.217 72.7192C435.35 72.7192 435.457 73.9478 435.483 75.4701C435.51 77.2062 435.749 78.9689 436.095 80.331C436.414 81.5062 437.132 83.3757 437.691 84.4708C438.276 85.5658 439.34 87.195 440.058 88.0764C440.776 88.9577 442.185 90.3199 443.169 91.0944C444.18 91.8956 445.776 92.8838 446.733 93.3379C447.691 93.7919 449.233 94.3261 450.191 94.513C451.148 94.7267 452.93 94.8869 454.18 94.8869C455.617 94.8869 457.212 94.7 458.569 94.3528C459.739 94.0323 461.468 93.3646 462.425 92.8571C463.383 92.3497 464.819 91.4149 465.617 90.8006C466.415 90.1596 467.665 88.8509 468.383 87.9161C469.101 86.9813 470.085 85.3254 470.59 84.2838C471.069 83.2155 471.468 82.1472 471.468 81.9335C471.468 81.7198 471.574 81.4795 471.734 81.3993C471.894 81.3192 472.053 81.2925 472.133 81.3459C472.213 81.3726 472.08 82.1205 471.84 83.0018C471.601 83.8832 470.909 85.5658 470.298 86.7143C469.659 87.9695 468.489 89.5987 467.479 90.6938C466.521 91.7087 464.978 93.0708 464.021 93.7118C463.064 94.3261 461.548 95.154 460.643 95.5279C459.712 95.9019 458.037 96.4093 456.92 96.6497C455.404 96.9702 454.127 97.0503 452.186 96.9435C450.723 96.8366 448.755 96.5429 447.797 96.2491C446.84 95.982 445.483 95.4745 444.739 95.154C444.021 94.8335 442.744 94.1124 441.946 93.5515C441.148 93.0174 439.765 91.7888 438.887 90.854C438.01 89.9192 436.919 88.477 436.441 87.6757C435.988 86.8745 435.27 85.2453 434.898 84.0702C434.472 82.7615 434.127 81.0521 434.047 79.6633C433.941 78.2745 434.02 76.6987 434.233 75.6571Z" fill="url(#paint7_linear_1353_55)"/>
<path d="M6.48 124.903H8.44L14.02 138.883H11.94L10.54 135.403H4.36L3 138.883H0.9L6.48 124.903ZM9.98 133.703L7.46 127.163L4.94 133.703H9.98ZM16.2219 124.903H21.6019C23.1085 124.903 24.2952 125.283 25.1619 126.043C26.0419 126.789 26.4819 127.856 26.4819 129.243C26.4819 130.656 26.0485 131.729 25.1819 132.463C24.3152 133.183 23.1219 133.543 21.6019 133.543H18.2619V138.883H16.2219V124.903ZM21.3819 131.843C22.3152 131.843 23.0552 131.649 23.6019 131.263C24.1485 130.876 24.4219 130.203 24.4219 129.243C24.4219 128.283 24.1485 127.609 23.6019 127.223C23.0552 126.823 22.3152 126.623 21.3819 126.623H18.2619V131.843H21.3819ZM27.9797 124.903H33.3597C34.8664 124.903 36.053 125.283 36.9197 126.043C37.7997 126.789 38.2397 127.856 38.2397 129.243C38.2397 130.656 37.8064 131.729 36.9397 132.463C36.073 133.183 34.8797 133.543 33.3597 133.543H30.0197V138.883H27.9797V124.903ZM33.1397 131.843C34.073 131.843 34.813 131.649 35.3597 131.263C35.9064 130.876 36.1797 130.203 36.1797 129.243C36.1797 128.283 35.9064 127.609 35.3597 127.223C34.813 126.823 34.073 126.623 33.1397 126.623H30.0197V131.843H33.1397ZM40.0305 124.903H42.0705V137.183H49.1505V138.883H40.0305V124.903ZM50.9484 124.903H53.0084V138.883H50.9484V124.903ZM62.6164 139.183C61.1764 139.183 59.8964 138.883 58.7764 138.283C57.6564 137.683 56.7831 136.836 56.1564 135.743C55.5297 134.636 55.2164 133.356 55.2164 131.903C55.2164 130.449 55.5297 129.169 56.1564 128.063C56.7831 126.956 57.6564 126.103 58.7764 125.503C59.8964 124.903 61.1764 124.603 62.6164 124.603C64.5364 124.603 66.1431 125.089 67.4364 126.063V128.023C66.2764 126.996 64.7297 126.483 62.7964 126.483C61.7164 126.483 60.7564 126.703 59.9164 127.143C59.0897 127.583 58.4431 128.216 57.9764 129.043C57.5097 129.856 57.2764 130.809 57.2764 131.903C57.2764 132.996 57.5097 133.956 57.9764 134.783C58.4564 135.609 59.1097 136.243 59.9364 136.683C60.7764 137.123 61.7297 137.343 62.7964 137.343C63.7831 137.343 64.6631 137.216 65.4364 136.963C66.2231 136.696 66.9497 136.276 67.6164 135.703V137.683C66.4164 138.683 64.7497 139.183 62.6164 139.183ZM74.4878 124.903H76.4478L82.0278 138.883H79.9478L78.5478 135.403H72.3678L71.0078 138.883H68.9078L74.4878 124.903ZM77.9878 133.703L75.4678 127.163L72.9478 133.703H77.9878ZM85.2697 126.623H80.9297V124.903H91.6697V126.623H87.3297V138.883H85.2697V126.623ZM93.468 124.903H95.528V138.883H93.468V124.903ZM105.096 139.183C103.709 139.183 102.456 138.883 101.336 138.283C100.216 137.669 99.3359 136.809 98.6959 135.703C98.0559 134.596 97.7359 133.329 97.7359 131.903C97.7359 130.476 98.0559 129.209 98.6959 128.103C99.3359 126.996 100.216 126.136 101.336 125.523C102.456 124.909 103.709 124.603 105.096 124.603C106.483 124.603 107.736 124.909 108.856 125.523C109.976 126.136 110.856 126.996 111.496 128.103C112.136 129.209 112.456 130.476 112.456 131.903C112.456 133.329 112.136 134.596 111.496 135.703C110.856 136.809 109.976 137.669 108.856 138.283C107.736 138.883 106.483 139.183 105.096 139.183ZM105.096 137.343C106.083 137.343 106.976 137.123 107.776 136.683C108.589 136.229 109.229 135.596 109.696 134.783C110.163 133.956 110.396 132.996 110.396 131.903C110.396 130.823 110.163 129.876 109.696 129.063C109.243 128.236 108.616 127.603 107.816 127.163C107.016 126.709 106.123 126.483 105.136 126.483C104.136 126.483 103.229 126.703 102.416 127.143C101.616 127.583 100.976 128.216 100.496 129.043C100.029 129.869 99.7959 130.823 99.7959 131.903C99.7959 132.996 100.029 133.956 100.496 134.783C100.963 135.596 101.596 136.229 102.396 136.683C103.209 137.123 104.109 137.343 105.096 137.343ZM114.659 124.903H116.599L123.719 135.443V124.903H125.779V138.883H123.819L116.699 128.343V138.883H114.659V124.903ZM132.25 139.183C131.45 139.183 130.657 139.109 129.87 138.963C129.097 138.829 128.464 138.643 127.97 138.403V136.563C129.25 137.163 130.63 137.463 132.11 137.463C134.19 137.463 135.23 136.763 135.23 135.363C135.23 134.883 135.117 134.496 134.89 134.203C134.664 133.909 134.337 133.656 133.91 133.443C133.484 133.216 132.79 132.909 131.83 132.523C130.51 131.989 129.557 131.403 128.97 130.763C128.384 130.123 128.09 129.316 128.09 128.343C128.09 127.609 128.29 126.963 128.69 126.403C129.09 125.829 129.65 125.389 130.37 125.083C131.09 124.763 131.917 124.603 132.85 124.603C133.61 124.603 134.297 124.663 134.91 124.783C135.524 124.903 136.124 125.096 136.71 125.363V127.123C135.55 126.603 134.377 126.343 133.19 126.343C132.23 126.343 131.497 126.516 130.99 126.863C130.484 127.209 130.23 127.703 130.23 128.343C130.23 128.783 130.337 129.156 130.55 129.463C130.777 129.756 131.104 130.023 131.53 130.263C131.97 130.489 132.617 130.776 133.47 131.123C134.417 131.509 135.164 131.876 135.71 132.223C136.257 132.569 136.67 132.996 136.95 133.503C137.244 133.996 137.39 134.616 137.39 135.363C137.39 136.576 136.957 137.516 136.09 138.183C135.224 138.849 133.944 139.183 132.25 139.183Z" fill="black"/>
<line x1="139" y1="138.5" x2="428" y2="138.5" stroke="black" stroke-dasharray="2 2"/>
<path d="M448.92 129.22L445.9 131.4V129.46L449.2 127.02H450.96V141H448.92V129.22ZM461.166 137.56H454.366V136.26L461.146 127.02H463.226V135.96H465.386V137.56H463.226V141H461.166V137.56ZM461.406 135.96V129.46L456.666 135.96H461.406Z" fill="black"/>
<path d="M447.664 113.282C448.542 112.935 450.031 112.481 450.989 112.267C452.026 112.053 453.675 111.946 455.111 112.027C456.441 112.08 458.143 112.32 458.914 112.534C459.659 112.774 460.297 113.095 460.297 113.228C460.297 113.389 459.287 113.496 457.771 113.496C456.388 113.496 454.367 113.683 453.329 113.923C452.265 114.163 450.43 114.804 449.26 115.365C448.09 115.899 446.361 116.941 445.43 117.662C444.473 118.383 443.116 119.692 442.398 120.573C441.68 121.455 440.776 122.71 440.377 123.378C440.004 124.045 439.419 125.327 439.1 126.262C438.754 127.17 438.356 128.986 438.223 130.322C438.01 132.245 438.036 133.206 438.382 135.076C438.595 136.358 439.1 138.174 439.499 139.135C439.898 140.097 440.776 141.646 441.441 142.607C442.132 143.569 443.223 144.851 443.914 145.492C444.579 146.106 445.776 147.014 446.521 147.522C447.292 148.002 448.808 148.75 449.872 149.178C450.936 149.605 451.787 150.032 451.787 150.166C451.787 150.273 451.627 150.353 451.468 150.353C451.281 150.353 450.217 150.059 449.127 149.685C448.037 149.338 446.228 148.457 445.138 147.735C444.047 147.014 442.451 145.706 441.6 144.851C440.776 143.996 439.845 142.928 439.526 142.474C439.233 142.02 438.648 141.005 438.249 140.204C437.824 139.402 437.185 137.88 436.866 136.865C436.308 135.263 436.228 134.488 436.228 131.256C436.228 128.105 436.334 127.197 436.866 125.514C437.185 124.419 437.877 122.737 438.382 121.775C438.887 120.814 439.792 119.425 440.403 118.677C441.042 117.902 442.079 116.834 442.744 116.3C443.409 115.739 444.419 114.991 445.005 114.617C445.59 114.243 446.787 113.656 447.664 113.282Z" fill="url(#paint8_linear_1353_55)"/>
<path d="M448.994 116.14C450.164 115.579 452.026 114.858 453.116 114.564C454.739 114.137 455.723 114.056 458.303 114.137C461.016 114.217 461.893 114.35 464.021 115.071C465.51 115.552 467.372 116.433 468.542 117.208C469.633 117.902 471.255 119.265 472.133 120.226C473.011 121.187 474.101 122.656 474.58 123.538C475.058 124.392 475.67 125.835 475.989 126.716C476.282 127.597 476.654 129.227 476.84 130.322C477.053 131.817 477.053 132.832 476.84 134.328C476.654 135.423 476.415 136.785 476.255 137.346C476.122 137.88 475.883 138.334 475.723 138.334C475.564 138.334 475.457 137.399 475.457 136.064C475.457 134.809 475.271 132.859 475.032 131.737C474.792 130.589 474.367 129.066 474.074 128.319C473.782 127.597 473.037 126.129 472.399 125.114C471.761 124.099 470.324 122.336 469.154 121.241C467.798 119.906 466.361 118.864 464.952 118.116C463.782 117.502 461.973 116.807 460.962 116.567C459.925 116.327 458.063 116.14 456.707 116.14C455.404 116.166 453.542 116.353 452.585 116.594C451.627 116.834 450.271 117.315 449.526 117.635C448.808 117.956 447.478 118.704 446.6 119.291C445.723 119.906 444.446 120.974 443.755 121.695C443.09 122.389 442.026 123.751 441.441 124.713C440.829 125.674 440.058 127.197 439.739 128.132C439.419 129.04 439.074 129.788 438.967 129.788C438.834 129.788 438.754 129.627 438.754 129.467C438.754 129.28 438.941 128.452 439.18 127.651C439.419 126.85 440.004 125.407 440.51 124.446C441.015 123.484 441.946 122.042 442.611 121.241C443.276 120.44 444.499 119.184 445.324 118.49C446.175 117.796 447.824 116.727 448.994 116.14Z" fill="url(#paint9_linear_1353_55)"/>
<path d="M460.244 117.528C459.686 117.368 459.234 117.101 459.26 116.941C459.287 116.754 459.579 116.727 460.111 116.834C460.59 116.941 461.734 117.315 462.691 117.689C463.649 118.036 465.191 118.864 466.149 119.505C467.106 120.146 468.542 121.348 469.367 122.229C470.191 123.084 471.308 124.499 471.867 125.381C472.425 126.262 473.17 127.651 473.489 128.452C473.808 129.253 474.287 130.936 474.553 132.191C474.872 133.847 474.952 135.102 474.846 136.865C474.739 138.201 474.42 140.177 474.128 141.272C473.808 142.367 473.064 144.237 472.452 145.412C471.654 146.934 470.723 148.163 469.207 149.685C467.771 151.154 466.468 152.142 465.218 152.81C464.207 153.344 462.452 154.065 461.361 154.386C459.819 154.866 458.755 155 456.574 155C454.739 155 453.249 154.84 452.239 154.546C451.414 154.306 450.723 154.012 450.723 153.905C450.723 153.771 452.186 153.611 453.968 153.531C456.68 153.398 457.638 153.237 459.633 152.543C460.962 152.062 462.691 151.288 463.489 150.834C464.287 150.353 466.042 148.857 467.372 147.548C469.34 145.599 469.979 144.717 470.909 142.875C471.521 141.619 472.186 139.75 472.399 138.735C472.612 137.72 472.798 135.957 472.798 134.862C472.798 133.767 472.612 132.004 472.399 130.989C472.186 129.974 471.601 128.265 471.096 127.25C470.617 126.235 469.659 124.633 468.968 123.725C468.303 122.79 467.053 121.481 466.228 120.814C465.377 120.146 463.915 119.211 462.957 118.73C462 118.25 460.776 117.715 460.244 117.528Z" fill="url(#paint10_linear_1353_55)"/>
<path d="M434.233 131.657C434.393 130.696 434.659 129.654 434.792 129.333C434.925 128.986 435.111 128.719 435.217 128.719C435.35 128.719 435.457 129.948 435.483 131.47C435.51 133.206 435.749 134.969 436.095 136.331C436.414 137.506 437.132 139.376 437.691 140.471C438.276 141.566 439.34 143.195 440.058 144.076C440.776 144.958 442.185 146.32 443.169 147.094C444.18 147.896 445.776 148.884 446.733 149.338C447.691 149.792 449.233 150.326 450.191 150.513C451.148 150.727 452.93 150.887 454.18 150.887C455.617 150.887 457.212 150.7 458.569 150.353C459.739 150.032 461.468 149.365 462.425 148.857C463.383 148.35 464.819 147.415 465.617 146.801C466.415 146.16 467.665 144.851 468.383 143.916C469.101 142.981 470.085 141.325 470.59 140.284C471.069 139.215 471.468 138.147 471.468 137.933C471.468 137.72 471.574 137.479 471.734 137.399C471.894 137.319 472.053 137.293 472.133 137.346C472.213 137.373 472.08 138.12 471.84 139.002C471.601 139.883 470.909 141.566 470.298 142.714C469.659 143.97 468.489 145.599 467.479 146.694C466.521 147.709 464.978 149.071 464.021 149.712C463.064 150.326 461.548 151.154 460.643 151.528C459.712 151.902 458.037 152.409 456.92 152.65C455.404 152.97 454.127 153.05 452.186 152.943C450.723 152.837 448.755 152.543 447.797 152.249C446.84 151.982 445.483 151.475 444.739 151.154C444.021 150.834 442.744 150.112 441.946 149.552C441.148 149.017 439.765 147.789 438.887 146.854C438.01 145.919 436.919 144.477 436.441 143.676C435.988 142.875 435.27 141.245 434.898 140.07C434.472 138.761 434.127 137.052 434.047 135.663C433.941 134.274 434.02 132.699 434.233 131.657Z" fill="url(#paint11_linear_1353_55)"/>
<path d="M8.3 195.558C6.86 195.558 5.58 195.258 4.46 194.658C3.34 194.058 2.46667 193.211 1.84 192.118C1.21333 191.011 0.9 189.731 0.9 188.278C0.9 186.824 1.21333 185.544 1.84 184.438C2.46667 183.331 3.34 182.478 4.46 181.878C5.58 181.278 6.86 180.978 8.3 180.978C10.22 180.978 11.8267 181.464 13.12 182.438V184.398C11.96 183.371 10.4133 182.858 8.48 182.858C7.4 182.858 6.44 183.078 5.6 183.518C4.77333 183.958 4.12667 184.591 3.66 185.418C3.19333 186.231 2.96 187.184 2.96 188.278C2.96 189.371 3.19333 190.331 3.66 191.158C4.14 191.984 4.79333 192.618 5.62 193.058C6.46 193.498 7.41333 193.718 8.48 193.718C9.46667 193.718 10.3467 193.591 11.12 193.338C11.9067 193.071 12.6333 192.651 13.3 192.078V194.058C12.1 195.058 10.4333 195.558 8.3 195.558ZM21.9514 195.558C20.5647 195.558 19.3114 195.258 18.1914 194.658C17.0714 194.044 16.1914 193.184 15.5514 192.078C14.9114 190.971 14.5914 189.704 14.5914 188.278C14.5914 186.851 14.9114 185.584 15.5514 184.478C16.1914 183.371 17.0714 182.511 18.1914 181.898C19.3114 181.284 20.5647 180.978 21.9514 180.978C23.3381 180.978 24.5914 181.284 25.7114 181.898C26.8314 182.511 27.7114 183.371 28.3514 184.478C28.9914 185.584 29.3114 186.851 29.3114 188.278C29.3114 189.704 28.9914 190.971 28.3514 192.078C27.7114 193.184 26.8314 194.044 25.7114 194.658C24.5914 195.258 23.3381 195.558 21.9514 195.558ZM21.9514 193.718C22.9381 193.718 23.8314 193.498 24.6314 193.058C25.4447 192.604 26.0847 191.971 26.5514 191.158C27.0181 190.331 27.2514 189.371 27.2514 188.278C27.2514 187.198 27.0181 186.251 26.5514 185.438C26.0981 184.611 25.4714 183.978 24.6714 183.538C23.8714 183.084 22.9781 182.858 21.9914 182.858C20.9914 182.858 20.0847 183.078 19.2714 183.518C18.4714 183.958 17.8314 184.591 17.3514 185.418C16.8847 186.244 16.6514 187.198 16.6514 188.278C16.6514 189.371 16.8847 190.331 17.3514 191.158C17.8181 191.971 18.4514 192.604 19.2514 193.058C20.0647 193.498 20.9647 193.718 21.9514 193.718ZM31.5148 181.278H33.4548L40.5748 191.818V181.278H42.6348V195.258H40.6748L33.5548 184.718V195.258H31.5148V181.278ZM48.7658 182.998H44.4258V181.278H55.1658V182.998H50.8258V195.258H48.7658V182.998ZM59.6441 181.278H61.6041L67.1841 195.258H65.1041L63.7041 191.778H57.5241L56.1641 195.258H54.0641L59.6441 181.278ZM63.1441 190.078L60.6241 183.538L58.1041 190.078H63.1441ZM75.2922 195.558C73.8522 195.558 72.5722 195.258 71.4522 194.658C70.3322 194.058 69.4589 193.211 68.8322 192.118C68.2055 191.011 67.8922 189.731 67.8922 188.278C67.8922 186.824 68.2055 185.544 68.8322 184.438C69.4589 183.331 70.3322 182.478 71.4522 181.878C72.5722 181.278 73.8522 180.978 75.2922 180.978C77.2122 180.978 78.8189 181.464 80.1122 182.438V184.398C78.9522 183.371 77.4055 182.858 75.4722 182.858C74.3922 182.858 73.4322 183.078 72.5922 183.518C71.7655 183.958 71.1189 184.591 70.6522 185.418C70.1855 186.231 69.9522 187.184 69.9522 188.278C69.9522 189.371 70.1855 190.331 70.6522 191.158C71.1322 191.984 71.7855 192.618 72.6122 193.058C73.4522 193.498 74.4055 193.718 75.4722 193.718C76.4589 193.718 77.3389 193.591 78.1122 193.338C78.8989 193.071 79.6255 192.651 80.2922 192.078V194.058C79.0922 195.058 77.4255 195.558 75.2922 195.558ZM85.9338 182.998H81.5938V181.278H92.3338V182.998H87.9938V195.258H85.9338V182.998ZM107.214 195.558C105.308 195.558 103.868 195.071 102.894 194.098C101.921 193.111 101.434 191.758 101.434 190.038V181.278H103.474V190.118C103.474 191.304 103.808 192.204 104.474 192.818C105.141 193.418 106.054 193.718 107.214 193.718C108.361 193.718 109.268 193.418 109.934 192.818C110.601 192.204 110.934 191.304 110.934 190.118V181.278H112.974V190.038C112.974 191.744 112.488 193.091 111.514 194.078C110.541 195.064 109.108 195.558 107.214 195.558ZM119.36 195.558C118.56 195.558 117.766 195.484 116.98 195.338C116.206 195.204 115.573 195.018 115.08 194.778V192.938C116.36 193.538 117.74 193.838 119.22 193.838C121.3 193.838 122.34 193.138 122.34 191.738C122.34 191.258 122.226 190.871 122 190.578C121.773 190.284 121.446 190.031 121.02 189.818C120.593 189.591 119.9 189.284 118.94 188.898C117.62 188.364 116.666 187.778 116.08 187.138C115.493 186.498 115.2 185.691 115.2 184.718C115.2 183.984 115.4 183.338 115.8 182.778C116.2 182.204 116.76 181.764 117.48 181.458C118.2 181.138 119.026 180.978 119.96 180.978C120.72 180.978 121.406 181.038 122.02 181.158C122.633 181.278 123.233 181.471 123.82 181.738V183.498C122.66 182.978 121.486 182.718 120.3 182.718C119.34 182.718 118.606 182.891 118.1 183.238C117.593 183.584 117.34 184.078 117.34 184.718C117.34 185.158 117.446 185.531 117.66 185.838C117.886 186.131 118.213 186.398 118.64 186.638C119.08 186.864 119.726 187.151 120.58 187.498C121.526 187.884 122.273 188.251 122.82 188.598C123.366 188.944 123.78 189.371 124.06 189.878C124.353 190.371 124.5 190.991 124.5 191.738C124.5 192.951 124.066 193.891 123.2 194.558C122.333 195.224 121.053 195.558 119.36 195.558Z" fill="black"/>
<line x1="130" y1="195.5" x2="426" y2="195.5" stroke="black" stroke-dasharray="2 2"/>
<path d="M444.9 195.66L447.92 192.76C448.187 192.493 448.56 192.147 449.04 191.72C449.8 191.027 450.38 190.467 450.78 190.04C451.18 189.613 451.507 189.16 451.76 188.68C452.013 188.187 452.14 187.66 452.14 187.1C452.14 186.273 451.9 185.647 451.42 185.22C450.94 184.78 450.24 184.56 449.32 184.56C448.693 184.56 448.047 184.673 447.38 184.9C446.727 185.127 446.113 185.46 445.54 185.9V183.94C446.66 183.127 448.027 182.72 449.64 182.72C451.08 182.72 452.2 183.107 453 183.88C453.8 184.64 454.2 185.68 454.2 187C454.2 187.64 454.06 188.253 453.78 188.84C453.513 189.427 453.133 190.007 452.64 190.58C452.147 191.14 451.48 191.827 450.64 192.64L447.92 195.3H454.72V197H444.9V195.66ZM456.521 195.66L459.541 192.76C459.808 192.493 460.181 192.147 460.661 191.72C461.421 191.027 462.001 190.467 462.401 190.04C462.801 189.613 463.128 189.16 463.381 188.68C463.634 188.187 463.761 187.66 463.761 187.1C463.761 186.273 463.521 185.647 463.041 185.22C462.561 184.78 461.861 184.56 460.941 184.56C460.314 184.56 459.668 184.673 459.001 184.9C458.348 185.127 457.734 185.46 457.161 185.9V183.94C458.281 183.127 459.648 182.72 461.261 182.72C462.701 182.72 463.821 183.107 464.621 183.88C465.421 184.64 465.821 185.68 465.821 187C465.821 187.64 465.681 188.253 465.401 188.84C465.134 189.427 464.754 190.007 464.261 190.58C463.768 191.14 463.101 191.827 462.261 192.64L459.541 195.3H466.341V197H456.521V195.66Z" fill="black"/>
<path d="M447.664 169.282C448.542 168.935 450.031 168.481 450.989 168.267C452.026 168.053 453.675 167.946 455.111 168.027C456.441 168.08 458.143 168.32 458.914 168.534C459.659 168.774 460.297 169.095 460.297 169.228C460.297 169.389 459.287 169.496 457.771 169.496C456.388 169.496 454.367 169.683 453.329 169.923C452.265 170.163 450.43 170.804 449.26 171.365C448.09 171.899 446.361 172.941 445.43 173.662C444.473 174.383 443.116 175.692 442.398 176.573C441.68 177.455 440.776 178.71 440.377 179.378C440.004 180.045 439.419 181.327 439.1 182.262C438.754 183.17 438.356 184.986 438.223 186.322C438.01 188.245 438.036 189.206 438.382 191.076C438.595 192.358 439.1 194.174 439.499 195.135C439.898 196.097 440.776 197.646 441.441 198.607C442.132 199.569 443.223 200.851 443.914 201.492C444.579 202.106 445.776 203.014 446.521 203.522C447.292 204.002 448.808 204.75 449.872 205.178C450.936 205.605 451.787 206.032 451.787 206.166C451.787 206.273 451.627 206.353 451.468 206.353C451.281 206.353 450.217 206.059 449.127 205.685C448.037 205.338 446.228 204.457 445.138 203.735C444.047 203.014 442.451 201.706 441.6 200.851C440.776 199.996 439.845 198.928 439.526 198.474C439.233 198.02 438.648 197.005 438.249 196.204C437.824 195.402 437.185 193.88 436.866 192.865C436.308 191.263 436.228 190.488 436.228 187.256C436.228 184.105 436.334 183.197 436.866 181.514C437.185 180.419 437.877 178.737 438.382 177.775C438.887 176.814 439.792 175.425 440.403 174.677C441.042 173.902 442.079 172.834 442.744 172.3C443.409 171.739 444.419 170.991 445.005 170.617C445.59 170.243 446.787 169.656 447.664 169.282Z" fill="url(#paint12_linear_1353_55)"/>
<path d="M448.994 172.14C450.164 171.579 452.026 170.858 453.116 170.564C454.739 170.137 455.723 170.056 458.303 170.137C461.016 170.217 461.893 170.35 464.021 171.071C465.51 171.552 467.372 172.433 468.542 173.208C469.633 173.902 471.255 175.265 472.133 176.226C473.011 177.187 474.101 178.656 474.58 179.538C475.058 180.392 475.67 181.835 475.989 182.716C476.282 183.597 476.654 185.227 476.84 186.322C477.053 187.817 477.053 188.832 476.84 190.328C476.654 191.423 476.415 192.785 476.255 193.346C476.122 193.88 475.883 194.334 475.723 194.334C475.564 194.334 475.457 193.399 475.457 192.064C475.457 190.809 475.271 188.859 475.032 187.737C474.792 186.589 474.367 185.066 474.074 184.319C473.782 183.597 473.037 182.129 472.399 181.114C471.761 180.099 470.324 178.336 469.154 177.241C467.798 175.906 466.361 174.864 464.952 174.116C463.782 173.502 461.973 172.807 460.962 172.567C459.925 172.327 458.063 172.14 456.707 172.14C455.404 172.166 453.542 172.353 452.585 172.594C451.627 172.834 450.271 173.315 449.526 173.635C448.808 173.956 447.478 174.704 446.6 175.291C445.723 175.906 444.446 176.974 443.755 177.695C443.09 178.389 442.026 179.751 441.441 180.713C440.829 181.674 440.058 183.197 439.739 184.132C439.419 185.04 439.074 185.788 438.967 185.788C438.834 185.788 438.754 185.627 438.754 185.467C438.754 185.28 438.941 184.452 439.18 183.651C439.419 182.85 440.004 181.407 440.51 180.446C441.015 179.484 441.946 178.042 442.611 177.241C443.276 176.44 444.499 175.184 445.324 174.49C446.175 173.796 447.824 172.727 448.994 172.14Z" fill="url(#paint13_linear_1353_55)"/>
<path d="M460.244 173.528C459.686 173.368 459.234 173.101 459.26 172.941C459.287 172.754 459.579 172.727 460.111 172.834C460.59 172.941 461.734 173.315 462.691 173.689C463.649 174.036 465.191 174.864 466.149 175.505C467.106 176.146 468.542 177.348 469.367 178.229C470.191 179.084 471.308 180.499 471.867 181.381C472.425 182.262 473.17 183.651 473.489 184.452C473.808 185.253 474.287 186.936 474.553 188.191C474.872 189.847 474.952 191.102 474.846 192.865C474.739 194.201 474.42 196.177 474.128 197.272C473.808 198.367 473.064 200.237 472.452 201.412C471.654 202.934 470.723 204.163 469.207 205.685C467.771 207.154 466.468 208.142 465.218 208.81C464.207 209.344 462.452 210.065 461.361 210.386C459.819 210.866 458.755 211 456.574 211C454.739 211 453.249 210.84 452.239 210.546C451.414 210.306 450.723 210.012 450.723 209.905C450.723 209.771 452.186 209.611 453.968 209.531C456.68 209.398 457.638 209.237 459.633 208.543C460.962 208.062 462.691 207.288 463.489 206.834C464.287 206.353 466.042 204.857 467.372 203.548C469.34 201.599 469.979 200.717 470.909 198.875C471.521 197.619 472.186 195.75 472.399 194.735C472.612 193.72 472.798 191.957 472.798 190.862C472.798 189.767 472.612 188.004 472.399 186.989C472.186 185.974 471.601 184.265 471.096 183.25C470.617 182.235 469.659 180.633 468.968 179.725C468.303 178.79 467.053 177.481 466.228 176.814C465.377 176.146 463.915 175.211 462.957 174.73C462 174.25 460.776 173.715 460.244 173.528Z" fill="url(#paint14_linear_1353_55)"/>
<path d="M434.233 187.657C434.393 186.696 434.659 185.654 434.792 185.333C434.925 184.986 435.111 184.719 435.217 184.719C435.35 184.719 435.457 185.948 435.483 187.47C435.51 189.206 435.749 190.969 436.095 192.331C436.414 193.506 437.132 195.376 437.691 196.471C438.276 197.566 439.34 199.195 440.058 200.076C440.776 200.958 442.185 202.32 443.169 203.094C444.18 203.896 445.776 204.884 446.733 205.338C447.691 205.792 449.233 206.326 450.191 206.513C451.148 206.727 452.93 206.887 454.18 206.887C455.617 206.887 457.212 206.7 458.569 206.353C459.739 206.032 461.468 205.365 462.425 204.857C463.383 204.35 464.819 203.415 465.617 202.801C466.415 202.16 467.665 200.851 468.383 199.916C469.101 198.981 470.085 197.325 470.59 196.284C471.069 195.215 471.468 194.147 471.468 193.933C471.468 193.72 471.574 193.479 471.734 193.399C471.894 193.319 472.053 193.293 472.133 193.346C472.213 193.373 472.08 194.12 471.84 195.002C471.601 195.883 470.909 197.566 470.298 198.714C469.659 199.97 468.489 201.599 467.479 202.694C466.521 203.709 464.978 205.071 464.021 205.712C463.064 206.326 461.548 207.154 460.643 207.528C459.712 207.902 458.037 208.409 456.92 208.65C455.404 208.97 454.127 209.05 452.186 208.943C450.723 208.837 448.755 208.543 447.797 208.249C446.84 207.982 445.483 207.475 444.739 207.154C444.021 206.834 442.744 206.112 441.946 205.552C441.148 205.017 439.765 203.789 438.887 202.854C438.01 201.919 436.919 200.477 436.441 199.676C435.988 198.875 435.27 197.245 434.898 196.07C434.472 194.761 434.127 193.052 434.047 191.663C433.941 190.274 434.02 188.699 434.233 187.657Z" fill="url(#paint15_linear_1353_55)"/>
<defs>
<linearGradient id="paint0_linear_1353_55" x1="434" y1="21.5" x2="477" y2="21.5" gradientUnits="userSpaceOnUse">
<stop stop-color="#00BE61"/>
<stop offset="1" stop-color="#00D3FF"/>
</linearGradient>
<linearGradient id="paint1_linear_1353_55" x1="434" y1="21.5" x2="477" y2="21.5" gradientUnits="userSpaceOnUse">
<stop stop-color="#00BE61"/>
<stop offset="1" stop-color="#00D3FF"/>
</linearGradient>
<linearGradient id="paint2_linear_1353_55" x1="434" y1="21.5" x2="477" y2="21.5" gradientUnits="userSpaceOnUse">
<stop stop-color="#00BE61"/>
<stop offset="1" stop-color="#00D3FF"/>
</linearGradient>
<linearGradient id="paint3_linear_1353_55" x1="434" y1="21.5" x2="477" y2="21.5" gradientUnits="userSpaceOnUse">
<stop stop-color="#00BE61"/>
<stop offset="1" stop-color="#00D3FF"/>
</linearGradient>
<linearGradient id="paint4_linear_1353_55" x1="434" y1="77.5" x2="477" y2="77.5" gradientUnits="userSpaceOnUse">
<stop stop-color="#00BE61"/>
<stop offset="1" stop-color="#00D3FF"/>
</linearGradient>
<linearGradient id="paint5_linear_1353_55" x1="434" y1="77.5" x2="477" y2="77.5" gradientUnits="userSpaceOnUse">
<stop stop-color="#00BE61"/>
<stop offset="1" stop-color="#00D3FF"/>
</linearGradient>
<linearGradient id="paint6_linear_1353_55" x1="434" y1="77.5" x2="477" y2="77.5" gradientUnits="userSpaceOnUse">
<stop stop-color="#00BE61"/>
<stop offset="1" stop-color="#00D3FF"/>
</linearGradient>
<linearGradient id="paint7_linear_1353_55" x1="434" y1="77.5" x2="477" y2="77.5" gradientUnits="userSpaceOnUse">
<stop stop-color="#00BE61"/>
<stop offset="1" stop-color="#00D3FF"/>
</linearGradient>
<linearGradient id="paint8_linear_1353_55" x1="434" y1="133.5" x2="477" y2="133.5" gradientUnits="userSpaceOnUse">
<stop stop-color="#00BE61"/>
<stop offset="1" stop-color="#00D3FF"/>
</linearGradient>
<linearGradient id="paint9_linear_1353_55" x1="434" y1="133.5" x2="477" y2="133.5" gradientUnits="userSpaceOnUse">
<stop stop-color="#00BE61"/>
<stop offset="1" stop-color="#00D3FF"/>
</linearGradient>
<linearGradient id="paint10_linear_1353_55" x1="434" y1="133.5" x2="477" y2="133.5" gradientUnits="userSpaceOnUse">
<stop stop-color="#00BE61"/>
<stop offset="1" stop-color="#00D3FF"/>
</linearGradient>
<linearGradient id="paint11_linear_1353_55" x1="434" y1="133.5" x2="477" y2="133.5" gradientUnits="userSpaceOnUse">
<stop stop-color="#00BE61"/>
<stop offset="1" stop-color="#00D3FF"/>
</linearGradient>
<linearGradient id="paint12_linear_1353_55" x1="434" y1="189.5" x2="477" y2="189.5" gradientUnits="userSpaceOnUse">
<stop stop-color="#00BE61"/>
<stop offset="1" stop-color="#00D3FF"/>
</linearGradient>
<linearGradient id="paint13_linear_1353_55" x1="434" y1="189.5" x2="477" y2="189.5" gradientUnits="userSpaceOnUse">
<stop stop-color="#00BE61"/>
<stop offset="1" stop-color="#00D3FF"/>
</linearGradient>
<linearGradient id="paint14_linear_1353_55" x1="434" y1="189.5" x2="477" y2="189.5" gradientUnits="userSpaceOnUse">
<stop stop-color="#00BE61"/>
<stop offset="1" stop-color="#00D3FF"/>
</linearGradient>
<linearGradient id="paint15_linear_1353_55" x1="434" y1="189.5" x2="477" y2="189.5" gradientUnits="userSpaceOnUse">
<stop stop-color="#00BE61"/>
<stop offset="1" stop-color="#00D3FF"/>
</linearGradient>
</defs>
</svg>
