<svg width="350" height="70" viewBox="0 0 350 70" fill="none" xmlns="http://www.w3.org/2000/svg">
<path d="M10.1667 30.6396H1.9207V27.3716H22.3267V30.6396H14.0807V53.9336H10.1667V30.6396ZM27.9005 54.5036C25.6965 54.5036 23.9232 53.9463 22.5805 52.8316C21.2632 51.6916 20.6045 50.1589 20.6045 48.2336C20.6045 46.2069 21.2379 44.6489 22.5045 43.5596C23.7965 42.4449 25.6205 41.8876 27.9765 41.8876C30.4845 41.8876 32.6125 42.3943 34.3605 43.4076V42.4576C34.3605 41.0136 33.9172 39.9496 33.0305 39.2656C32.1692 38.5563 30.8012 38.2016 28.9265 38.2016C27.8119 38.2016 26.7225 38.3156 25.6585 38.5436C24.6199 38.7463 23.6825 39.0376 22.8465 39.4176V36.3016C23.6065 35.9469 24.5945 35.6683 25.8105 35.4656C27.0265 35.2376 28.2045 35.1236 29.3445 35.1236C32.3592 35.1236 34.5885 35.7949 36.0325 37.1376C37.5019 38.4549 38.2365 40.2916 38.2365 42.6476V53.9336H34.6265V51.8816C33.8412 52.7429 32.9039 53.4016 31.8145 53.8576C30.7505 54.2883 29.4459 54.5036 27.9005 54.5036ZM28.8505 51.5776C30.0665 51.5776 31.1685 51.3369 32.1565 50.8556C33.1445 50.3743 33.8792 49.7029 34.3605 48.8416V46.3716C32.7139 45.3076 30.8772 44.7756 28.8505 44.7756C27.3812 44.7756 26.2792 45.0669 25.5445 45.6496C24.8352 46.2069 24.4805 47.0683 24.4805 48.2336C24.4805 50.4629 25.9372 51.5776 28.8505 51.5776ZM54.3233 54.5036C52.6766 54.5036 51.2453 54.2503 50.0293 53.7436C48.8386 53.2116 47.7366 52.3883 46.7233 51.2736V53.9336H42.9993V25.8516H46.8373V38.1256C47.6733 37.1376 48.75 36.3903 50.0673 35.8836C51.3846 35.3769 52.8033 35.1236 54.3233 35.1236C56.1473 35.1236 57.7813 35.5416 59.2253 36.3776C60.6946 37.1883 61.8346 38.3283 62.6453 39.7976C63.4813 41.2669 63.8993 42.9516 63.8993 44.8516C63.8993 46.7769 63.4813 48.4743 62.6453 49.9436C61.8346 51.3876 60.6946 52.5149 59.2253 53.3256C57.7813 54.1109 56.1473 54.5036 54.3233 54.5036ZM53.4493 51.4636C54.6906 51.4636 55.8053 51.1976 56.7933 50.6656C57.8066 50.1083 58.592 49.3229 59.1493 48.3096C59.732 47.2963 60.0233 46.1436 60.0233 44.8516C60.0233 43.5596 59.732 42.4069 59.1493 41.3936C58.592 40.3803 57.8066 39.5949 56.7933 39.0376C55.8053 38.4803 54.6906 38.2016 53.4493 38.2016C51.904 38.2016 50.5233 38.6196 49.3073 39.4556C48.0913 40.2916 47.268 41.4063 46.8373 42.7996V46.9036C47.3186 48.2969 48.142 49.4116 49.3073 50.2476C50.498 51.0583 51.8786 51.4636 53.4493 51.4636ZM68.0852 25.8516H71.9232V53.9336H68.0852V25.8516ZM86.9122 54.5036C83.5428 54.5036 80.8955 53.6676 78.9702 51.9956C77.0702 50.2983 76.1202 47.9169 76.1202 44.8516C76.1202 41.8623 76.9688 39.4936 78.6662 37.7456C80.3888 35.9976 82.8335 35.1236 86.0002 35.1236C88.1028 35.1236 89.8888 35.5289 91.3582 36.3396C92.8275 37.1249 93.9295 38.2269 94.6642 39.6456C95.4242 41.0389 95.8042 42.6349 95.8042 44.4336V46.3336H79.7682C79.8948 48.0563 80.6168 49.3483 81.9342 50.2096C83.2768 51.0456 85.0882 51.4636 87.3682 51.4636C88.5335 51.4636 89.7115 51.3623 90.9022 51.1596C92.0928 50.9316 93.1442 50.6403 94.0562 50.2856V53.3636C93.2455 53.6929 92.1688 53.9589 90.8262 54.1616C89.5088 54.3896 88.2042 54.5036 86.9122 54.5036ZM92.1942 43.6356C92.1435 41.9129 91.5735 40.5829 90.4842 39.6456C89.4202 38.6829 87.9002 38.2016 85.9242 38.2016C83.9988 38.2016 82.5042 38.6956 81.4402 39.6836C80.3762 40.6716 79.8188 41.9889 79.7682 43.6356H92.1942ZM127.288 54.5036C124.653 54.5036 122.272 53.9336 120.144 52.7936C118.016 51.6283 116.344 49.9943 115.128 47.8916C113.912 45.7889 113.304 43.3823 113.304 40.6716C113.304 37.9609 113.912 35.5543 115.128 33.4516C116.344 31.3489 118.016 29.7149 120.144 28.5496C122.272 27.3843 124.653 26.8016 127.288 26.8016C129.922 26.8016 132.304 27.3843 134.432 28.5496C136.56 29.7149 138.232 31.3489 139.448 33.4516C140.664 35.5543 141.272 37.9609 141.272 40.6716C141.272 43.3823 140.664 45.7889 139.448 47.8916C138.232 49.9943 136.56 51.6283 134.432 52.7936C132.304 53.9336 129.922 54.5036 127.288 54.5036ZM127.288 51.0076C129.162 51.0076 130.86 50.5896 132.38 49.7536C133.925 48.8923 135.141 47.6889 136.028 46.1436C136.914 44.5729 137.358 42.7489 137.358 40.6716C137.358 38.6196 136.914 36.8209 136.028 35.2756C135.166 33.7049 133.976 32.5016 132.456 31.6656C130.936 30.8043 129.238 30.3736 127.364 30.3736C125.464 30.3736 123.741 30.7916 122.196 31.6276C120.676 32.4636 119.46 33.6669 118.548 35.2376C117.661 36.8083 117.218 38.6196 117.218 40.6716C117.218 42.7489 117.661 44.5729 118.548 46.1436C119.434 47.6889 120.638 48.8923 122.158 49.7536C123.703 50.5896 125.413 51.0076 127.288 51.0076ZM146.156 38.6576H143.382V35.6936H146.156V32.1216C146.156 30.0189 146.751 28.4229 147.942 27.3336C149.132 26.2189 150.728 25.6616 152.73 25.6616C153.768 25.6616 154.744 25.8136 155.656 26.1176V29.3096C154.946 28.9803 154.212 28.8156 153.452 28.8156C152.261 28.8156 151.387 29.1069 150.83 29.6896C150.272 30.2469 149.994 31.1336 149.994 32.3496V35.6936H154.554V38.6576H149.994V53.9336H146.156V38.6576ZM185.663 54.5036C182.927 54.5036 180.495 53.9336 178.367 52.7936C176.239 51.6536 174.579 50.0449 173.389 47.9676C172.198 45.8649 171.603 43.4329 171.603 40.6716C171.603 37.9103 172.198 35.4783 173.389 33.3756C174.579 31.2729 176.239 29.6516 178.367 28.5116C180.495 27.3716 182.927 26.8016 185.663 26.8016C189.311 26.8016 192.363 27.7263 194.821 29.5756V33.2996C192.617 31.3489 189.678 30.3736 186.005 30.3736C183.953 30.3736 182.129 30.7916 180.533 31.6276C178.962 32.4636 177.733 33.6669 176.847 35.2376C175.96 36.7829 175.517 38.5943 175.517 40.6716C175.517 42.7489 175.96 44.5729 176.847 46.1436C177.759 47.7143 179 48.9176 180.571 49.7536C182.167 50.5896 183.978 51.0076 186.005 51.0076C187.879 51.0076 189.551 50.7669 191.021 50.2856C192.515 49.7789 193.896 48.9809 195.163 47.8916V51.6536C192.883 53.5536 189.716 54.5036 185.663 54.5036ZM207.99 54.5036C205.938 54.5036 204.127 54.1236 202.556 53.3636C201.011 52.5783 199.795 51.4636 198.908 50.0196C198.047 48.5503 197.616 46.8276 197.616 44.8516C197.616 42.9009 198.047 41.1909 198.908 39.7216C199.77 38.2523 200.986 37.1249 202.556 36.3396C204.127 35.5289 205.938 35.1236 207.99 35.1236C210.042 35.1236 211.854 35.5289 213.424 36.3396C214.995 37.1249 216.211 38.2523 217.072 39.7216C217.959 41.1909 218.402 42.9009 218.402 44.8516C218.402 46.8276 217.959 48.5503 217.072 50.0196C216.211 51.4636 214.995 52.5783 213.424 53.3636C211.854 54.1236 210.042 54.5036 207.99 54.5036ZM207.99 51.4636C209.966 51.4636 211.537 50.8556 212.702 49.6396C213.868 48.4236 214.45 46.8276 214.45 44.8516C214.45 42.7996 213.868 41.1783 212.702 39.9876C211.537 38.7969 209.966 38.2016 207.99 38.2016C206.014 38.2016 204.444 38.7969 203.278 39.9876C202.113 41.1783 201.53 42.7996 201.53 44.8516C201.53 46.8276 202.113 48.4236 203.278 49.6396C204.444 50.8556 206.014 51.4636 207.99 51.4636ZM222.572 35.6936H226.296V38.3156C227.157 37.2263 228.208 36.4283 229.45 35.9216C230.716 35.3896 232.034 35.1236 233.402 35.1236C235.834 35.1236 237.645 35.7696 238.836 37.0616C240.026 38.3536 240.622 40.0889 240.622 42.2676V53.9336H236.784V42.6476C236.784 39.6836 235.365 38.2016 232.528 38.2016C231.312 38.2016 230.172 38.4929 229.108 39.0756C228.069 39.6329 227.17 40.4943 226.41 41.6596V53.9336H222.572V35.6936ZM252.387 54.5036C250.537 54.5036 249.106 53.9716 248.093 52.9076C247.105 51.8436 246.611 50.3363 246.611 48.3856V38.6576H243.837V35.6936H246.611V30.2216H250.487V35.6936H254.971V38.6576H250.487V48.1196C250.487 49.3356 250.715 50.1969 251.171 50.7036C251.652 51.2103 252.513 51.4636 253.755 51.4636C254.489 51.4636 255.224 51.2989 255.959 50.9696V54.0096C254.996 54.3389 253.805 54.5036 252.387 54.5036ZM269.602 54.5036C266.232 54.5036 263.585 53.6676 261.66 51.9956C259.76 50.2983 258.81 47.9169 258.81 44.8516C258.81 41.8623 259.658 39.4936 261.356 37.7456C263.078 35.9976 265.523 35.1236 268.69 35.1236C270.792 35.1236 272.578 35.5289 274.048 36.3396C275.517 37.1249 276.619 38.2269 277.354 39.6456C278.114 41.0389 278.494 42.6349 278.494 44.4336V46.3336H262.458C262.584 48.0563 263.306 49.3483 264.624 50.2096C265.966 51.0456 267.778 51.4636 270.058 51.4636C271.223 51.4636 272.401 51.3623 273.592 51.1596C274.782 50.9316 275.834 50.6403 276.746 50.2856V53.3636C275.935 53.6929 274.858 53.9589 273.516 54.1616C272.198 54.3896 270.894 54.5036 269.602 54.5036ZM274.884 43.6356C274.833 41.9129 274.263 40.5829 273.174 39.6456C272.11 38.6829 270.59 38.2016 268.614 38.2016C266.688 38.2016 265.194 38.6956 264.13 39.6836C263.066 40.6716 262.508 41.9889 262.458 43.6356H274.884ZM282.689 35.6936H286.413V38.3156C287.274 37.2263 288.325 36.4283 289.567 35.9216C290.833 35.3896 292.151 35.1236 293.519 35.1236C295.951 35.1236 297.762 35.7696 298.953 37.0616C300.143 38.3536 300.739 40.0889 300.739 42.2676V53.9336H296.901V42.6476C296.901 39.6836 295.482 38.2016 292.645 38.2016C291.429 38.2016 290.289 38.4929 289.225 39.0756C288.186 39.6329 287.287 40.4943 286.527 41.6596V53.9336H282.689V35.6936ZM312.504 54.5036C310.655 54.5036 309.223 53.9716 308.21 52.9076C307.222 51.8436 306.728 50.3363 306.728 48.3856V38.6576H303.954V35.6936H306.728V30.2216H310.604V35.6936H315.088V38.6576H310.604V48.1196C310.604 49.3356 310.832 50.1969 311.288 50.7036C311.769 51.2103 312.631 51.4636 313.872 51.4636C314.607 51.4636 315.341 51.2989 316.076 50.9696V54.0096C315.113 54.3389 313.923 54.5036 312.504 54.5036ZM325.671 54.5036C324.404 54.5036 323.061 54.3389 321.643 54.0096C320.224 53.7056 319.109 53.2876 318.299 52.7556V49.4876C319.287 50.0703 320.427 50.5516 321.719 50.9316C323.011 51.2863 324.265 51.4636 325.481 51.4636C326.849 51.4636 327.849 51.2989 328.483 50.9696C329.116 50.6403 329.433 50.1083 329.433 49.3736C329.433 48.8163 329.281 48.3729 328.977 48.0436C328.698 47.6889 328.204 47.3723 327.495 47.0936C326.811 46.8149 325.772 46.4856 324.379 46.1056C322.884 45.6749 321.693 45.2443 320.807 44.8136C319.945 44.3576 319.287 43.7876 318.831 43.1036C318.4 42.4196 318.185 41.5329 318.185 40.4436C318.185 38.6956 318.869 37.3783 320.237 36.4916C321.63 35.5796 323.492 35.1236 325.823 35.1236C327.039 35.1236 328.229 35.2376 329.395 35.4656C330.56 35.6936 331.497 36.0103 332.207 36.4156V39.6076C331.472 39.1769 330.56 38.8349 329.471 38.5816C328.407 38.3283 327.317 38.2016 326.203 38.2016C324.86 38.2016 323.834 38.3663 323.125 38.6956C322.415 39.0249 322.061 39.6076 322.061 40.4436C322.061 40.9756 322.213 41.4063 322.517 41.7356C322.821 42.0649 323.302 42.3563 323.961 42.6096C324.645 42.8376 325.721 43.1416 327.191 43.5216C329.496 44.1549 331.092 44.9023 331.979 45.7636C332.891 46.6249 333.347 47.8156 333.347 49.3356C333.347 50.9063 332.701 52.1603 331.409 53.0976C330.117 54.0349 328.204 54.5036 325.671 54.5036Z" fill="url(#paint0_linear_1353_43)"/>
<path d="M349.254 7.79391L344.72 5.93976L343.072 0.838812C342.991 0.592607 342.845 0.380268 342.653 0.23032C342.461 0.0803725 342.233 0 342 0C341.767 0 341.539 0.0803725 341.347 0.23032C341.155 0.380268 341.009 0.592607 340.928 0.838812L339.28 5.93976L334.746 7.79391C334.527 7.8853 334.338 8.04985 334.205 8.26545C334.071 8.48105 334 8.73738 334 9C334 9.26262 334.071 9.51895 334.205 9.73455C334.338 9.95015 334.527 10.1147 334.746 10.2061L339.28 12.061L340.928 17.1612C341.009 17.4074 341.155 17.6197 341.347 17.7697C341.539 17.9196 341.767 18 342 18C342.233 18 342.461 17.9196 342.653 17.7697C342.845 17.6197 342.991 17.4074 343.072 17.1612L344.721 12.0602L349.254 10.2061C349.473 10.1147 349.662 9.95015 349.795 9.73455C349.929 9.51895 350 9.26262 350 9C350 8.73738 349.929 8.48105 349.795 8.26545C349.662 8.04985 349.473 7.8853 349.254 7.79391ZM344.078 10.9539C344 10.986 343.929 11.037 343.87 11.1034C343.811 11.1698 343.765 11.25 343.737 11.3382L342 16.7109L340.263 11.3382C340.235 11.25 340.189 11.1698 340.13 11.1034C340.071 11.037 340 10.986 339.922 10.9539L335.146 9L339.922 7.04614C340 7.01401 340.071 6.96296 340.13 6.89656C340.189 6.83016 340.235 6.75003 340.263 6.6618L342 1.28908L343.737 6.6618C343.765 6.75003 343.811 6.83016 343.87 6.89656C343.929 6.96296 344 7.01401 344.078 7.04614L348.854 9L344.078 10.9539Z" fill="url(#paint1_linear_1353_43)"/>
<defs>
<linearGradient id="paint0_linear_1353_43" x1="0.970703" y1="41.4336" x2="335.971" y2="41.4336" gradientUnits="userSpaceOnUse">
<stop stop-color="#00BE61"/>
<stop offset="1" stop-color="#00D3FF"/>
</linearGradient>
<linearGradient id="paint1_linear_1353_43" x1="350" y1="9" x2="334" y2="9" gradientUnits="userSpaceOnUse">
<stop stop-color="#00C071"/>
<stop offset="1" stop-color="#01D1F0"/>
</linearGradient>
</defs>
</svg>
