<svg width="550" height="690" viewBox="0 0 550 690" fill="none" xmlns="http://www.w3.org/2000/svg">
<g clip-path="url(#clip0_1351_7)">
<rect width="550" height="690" fill="white"/>
<rect x="261.551" y="655.5" width="26.9" height="26" rx="13" stroke="white" stroke-opacity="0.26"/>
<path d="M271.523 673.195C270.699 673.195 269.98 673.009 269.365 672.636C268.758 672.255 268.29 671.709 267.961 670.998C267.631 670.279 267.467 669.434 267.467 668.463C267.467 667.484 267.627 666.639 267.948 665.928C268.277 665.217 268.745 664.671 269.352 664.29C269.967 663.909 270.691 663.718 271.523 663.718C272.355 663.718 273.074 663.909 273.681 664.29C274.287 664.671 274.751 665.217 275.072 665.928C275.401 666.639 275.566 667.484 275.566 668.463C275.566 669.434 275.401 670.279 275.072 670.998C274.742 671.709 274.274 672.255 273.668 672.636C273.061 673.009 272.346 673.195 271.523 673.195ZM271.523 671.375C272.173 671.375 272.675 671.119 273.031 670.608C273.386 670.097 273.564 669.39 273.564 668.489C273.564 667.579 273.386 666.864 273.031 666.344C272.684 665.824 272.181 665.564 271.523 665.564C270.864 665.564 270.357 665.824 270.002 666.344C269.655 666.864 269.482 667.579 269.482 668.489C269.482 669.39 269.659 670.097 270.015 670.608C270.37 671.119 270.873 671.375 271.523 671.375ZM278.302 666.071L276.417 667.436V665.538L278.627 663.913H280.278V673H278.302V666.071Z" fill="white"/>
<circle cx="483.5" cy="678.5" r="66.5" fill="url(#paint0_linear_1351_7)" fill-opacity="0.11"/>
<path d="M387.5 -0.5L-1 66V-0.5H387.5Z" fill="url(#paint1_linear_1351_7)"/>
<path d="M161.5 690L550 623.5V690H161.5Z" fill="url(#paint2_linear_1351_7)"/>
<path d="M82.8109 697.883L609.841 607.954L611.058 609.199L85.2185 699.936L82.8109 697.883Z" fill="url(#paint3_linear_1351_7)"/>
<path d="M465.521 -7.99616L-61.5094 81.9331L-62.7263 80.6875L463.114 -10.0494L465.521 -7.99616Z" fill="url(#paint4_linear_1351_7)"/>
<path d="M273.41 686.15C272.797 686.15 272.263 686.003 271.81 685.71C271.357 685.417 271.007 684.997 270.76 684.45C270.52 683.903 270.4 683.257 270.4 682.51C270.4 681.763 270.52 681.117 270.76 680.57C271 680.017 271.343 679.593 271.79 679.3C272.243 679.007 272.783 678.86 273.41 678.86C274.03 678.86 274.567 679.007 275.02 679.3C275.473 679.593 275.82 680.017 276.06 680.57C276.3 681.117 276.42 681.763 276.42 682.51C276.42 683.257 276.3 683.903 276.06 684.45C275.82 684.997 275.473 685.417 275.02 685.71C274.567 686.003 274.03 686.15 273.41 686.15ZM273.41 685.01C273.963 685.01 274.39 684.79 274.69 684.35C274.997 683.903 275.15 683.293 275.15 682.52C275.15 681.747 275 681.137 274.7 680.69C274.4 680.243 273.973 680.02 273.42 680.02C272.867 680.02 272.437 680.243 272.13 680.69C271.83 681.137 271.68 681.747 271.68 682.52C271.68 683.293 271.83 683.903 272.13 684.35C272.437 684.79 272.863 685.01 273.41 685.01ZM278.696 680.35L277.216 681.42V680.24L278.896 679.01H279.956V686H278.696V680.35Z" fill="white"/>
</g>
<defs>
<linearGradient id="paint0_linear_1351_7" x1="417" y1="678.5" x2="550" y2="678.5" gradientUnits="userSpaceOnUse">
<stop stop-color="#00FF83"/>
<stop offset="1" stop-color="#00D3FF"/>
</linearGradient>
<linearGradient id="paint1_linear_1351_7" x1="71.5" y1="-78.25" x2="-1.4917" y2="63.1401" gradientUnits="userSpaceOnUse">
<stop stop-color="#000091" stop-opacity="0.61"/>
<stop offset="0.730769" stop-color="#00EFB0"/>
</linearGradient>
<linearGradient id="paint2_linear_1351_7" x1="477.5" y1="767.75" x2="550.492" y2="626.36" gradientUnits="userSpaceOnUse">
<stop stop-color="#000091" stop-opacity="0.61"/>
<stop offset="0.730769" stop-color="#00EFB0"/>
</linearGradient>
<linearGradient id="paint3_linear_1351_7" x1="452.316" y1="744.135" x2="473.256" y2="591.481" gradientUnits="userSpaceOnUse">
<stop stop-color="#000091" stop-opacity="0.61"/>
<stop offset="0.730769" stop-color="#00EFB0"/>
</linearGradient>
<linearGradient id="paint4_linear_1351_7" x1="96.0164" y1="-54.2483" x2="75.0757" y2="98.406" gradientUnits="userSpaceOnUse">
<stop stop-color="#000091" stop-opacity="0.61"/>
<stop offset="0.730769" stop-color="#00EFB0"/>
</linearGradient>
<clipPath id="clip0_1351_7">
<rect width="550" height="690" fill="white"/>
</clipPath>
</defs>
</svg>
