<svg width="550" height="690" viewBox="0 0 550 690" fill="none" xmlns="http://www.w3.org/2000/svg">
<g clip-path="url(#clip0_1389_2)">
<rect width="550" height="690" fill="white"/>
<rect x="46" y="6" width="85" height="79" rx="39.5" fill="white"/>
<path d="M387.5 -0.5L-1 66V-0.5H387.5Z" fill="url(#paint0_linear_1389_2)"/>
<path d="M161.5 690L550 623.5V690H161.5Z" fill="url(#paint1_linear_1389_2)"/>
<path d="M82.8109 697.883L609.841 607.954L611.058 609.199L85.2185 699.936L82.8109 697.883Z" fill="url(#paint2_linear_1389_2)"/>
<path d="M465.521 -7.99616L-61.5094 81.9331L-62.7263 80.6875L463.114 -10.0494L465.521 -7.99616Z" fill="url(#paint3_linear_1389_2)"/>
<path d="M273.41 686.15C272.797 686.15 272.263 686.003 271.81 685.71C271.357 685.417 271.007 684.997 270.76 684.45C270.52 683.903 270.4 683.257 270.4 682.51C270.4 681.763 270.52 681.117 270.76 680.57C271 680.017 271.343 679.593 271.79 679.3C272.243 679.007 272.783 678.86 273.41 678.86C274.03 678.86 274.567 679.007 275.02 679.3C275.473 679.593 275.82 680.017 276.06 680.57C276.3 681.117 276.42 681.763 276.42 682.51C276.42 683.257 276.3 683.903 276.06 684.45C275.82 684.997 275.473 685.417 275.02 685.71C274.567 686.003 274.03 686.15 273.41 686.15ZM273.41 685.01C273.963 685.01 274.39 684.79 274.69 684.35C274.997 683.903 275.15 683.293 275.15 682.52C275.15 681.747 275 681.137 274.7 680.69C274.4 680.243 273.973 680.02 273.42 680.02C272.867 680.02 272.437 680.243 272.13 680.69C271.83 681.137 271.68 681.747 271.68 682.52C271.68 683.293 271.83 683.903 272.13 684.35C272.437 684.79 272.863 685.01 273.41 685.01ZM277.216 685.18L278.596 683.91L279.256 683.32C279.623 683 279.9 682.743 280.086 682.55C280.28 682.357 280.436 682.15 280.556 681.93C280.676 681.703 280.736 681.46 280.736 681.2C280.736 680.82 280.623 680.53 280.396 680.33C280.176 680.123 279.86 680.02 279.446 680.02C279.126 680.02 278.793 680.08 278.446 680.2C278.106 680.313 277.796 680.477 277.516 680.69V679.48C278.096 679.067 278.81 678.86 279.656 678.86C280.403 678.86 280.983 679.06 281.396 679.46C281.81 679.86 282.016 680.407 282.016 681.1C282.016 681.427 281.953 681.733 281.826 682.02C281.7 682.3 281.52 682.573 281.286 682.84C281.053 683.107 280.736 683.423 280.336 683.79L279.086 684.95H282.266V686H277.216V685.18Z" fill="white"/>
</g>
<defs>
<linearGradient id="paint0_linear_1389_2" x1="71.5" y1="-78.25" x2="-1.4917" y2="63.1401" gradientUnits="userSpaceOnUse">
<stop stop-color="#000091" stop-opacity="0.61"/>
<stop offset="0.730769" stop-color="#00EFB0"/>
</linearGradient>
<linearGradient id="paint1_linear_1389_2" x1="477.5" y1="767.75" x2="550.492" y2="626.36" gradientUnits="userSpaceOnUse">
<stop stop-color="#000091" stop-opacity="0.61"/>
<stop offset="0.730769" stop-color="#00EFB0"/>
</linearGradient>
<linearGradient id="paint2_linear_1389_2" x1="452.316" y1="744.135" x2="473.256" y2="591.481" gradientUnits="userSpaceOnUse">
<stop stop-color="#000091" stop-opacity="0.61"/>
<stop offset="0.730769" stop-color="#00EFB0"/>
</linearGradient>
<linearGradient id="paint3_linear_1389_2" x1="96.0164" y1="-54.2483" x2="75.0757" y2="98.406" gradientUnits="userSpaceOnUse">
<stop stop-color="#000091" stop-opacity="0.61"/>
<stop offset="0.730769" stop-color="#00EFB0"/>
</linearGradient>
<clipPath id="clip0_1389_2">
<rect width="550" height="690" fill="white"/>
</clipPath>
</defs>
</svg>
