<svg width="306" height="40" viewBox="0 0 306 40" fill="none" xmlns="http://www.w3.org/2000/svg">
<path d="M5.6042 13.3881C4.63353 13.3909 3.77435 13.212 3.02665 12.8515C2.28958 12.4802 1.71209 11.9592 1.29417 11.2884C0.886913 10.6176 0.682002 9.83417 0.679437 8.93817C0.678216 8.51151 0.724918 8.05804 0.819543 7.57777C1.06161 6.43574 1.53337 5.42105 2.23483 4.5337C2.94696 3.64633 3.80899 2.95586 4.82091 2.46229C5.84351 1.96869 6.92013 1.72028 8.05079 1.71704C9.02146 1.71426 9.87532 1.89848 10.6124 2.26971C11.3601 2.63024 11.9376 3.15125 12.3449 3.83275C12.7521 4.50359 12.957 5.29234 12.9596 6.199C12.9609 6.62567 12.9141 7.07381 12.8195 7.54341C12.5774 8.68544 12.1003 9.70015 11.3882 10.5875C10.676 11.4642 9.814 12.1494 8.80208 12.6429C7.79015 13.1365 6.72419 13.3849 5.6042 13.3881ZM6.17259 10.7305C6.73792 10.7288 7.28155 10.5993 7.80348 10.3418C8.32542 10.0843 8.77236 9.71501 9.14432 9.23394C9.52694 8.75284 9.78667 8.1921 9.92351 7.5517C9.98659 7.23152 10.0177 6.92743 10.0169 6.63943C10.0148 5.92477 9.79459 5.37073 9.35613 4.97732C8.92834 4.58387 8.30911 4.38831 7.49845 4.39063C6.91178 4.39231 6.3575 4.52723 5.8356 4.79539C5.31367 5.05289 4.86672 5.42217 4.49476 5.90324C4.12278 6.37364 3.86837 6.92904 3.73153 7.56943C3.65775 7.87898 3.62132 8.19375 3.62223 8.51375C3.62428 9.22841 3.83919 9.77713 4.26695 10.1599C4.70538 10.5427 5.34059 10.7328 6.17259 10.7305ZM15.2643 1.93639L18.1443 1.92814L20.8674 8.57638L22.2563 1.91637L25.0083 1.90849L22.6723 13.0992L19.9683 13.107L17.2292 6.44278L15.8403 13.1188L12.9284 13.1271L15.2643 1.93639ZM34.2961 4.26591L31.1441 4.27494L31.6493 1.88948L40.8012 1.86328L40.296 4.24873L37.1281 4.2578L35.2973 13.0631L32.4653 13.0712L34.2961 4.26591ZM41.838 1.86031L44.67 1.8522L42.334 13.0429L39.502 13.051L41.838 1.86031ZM46.2636 1.84764L48.9036 1.84008L50.6834 8.76301L55.3835 1.82153L58.1675 1.81356L55.8316 13.0043L53.1916 13.0119L54.3595 7.39248L50.5196 13.0195L49.2396 13.0232L47.7515 7.4114L46.5836 13.0308L43.9276 13.0384L46.2636 1.84764ZM59.7673 1.80898L67.7032 1.78626L67.1981 4.17172L62.0941 4.18633L61.6681 6.28356L65.3961 6.27288L64.9224 8.49825L61.1945 8.50892L60.7525 10.6062L65.8564 10.5916L65.3673 12.977L57.4313 12.9997L59.7673 1.80898ZM163.593 12.9358C162.622 12.9386 161.763 12.7597 161.015 12.3992C160.278 12.0279 159.701 11.5069 159.283 10.8361C158.876 10.1653 158.671 9.38186 158.668 8.48586C158.667 8.0592 158.714 7.60573 158.808 7.12545C159.05 5.98342 159.522 4.96873 160.224 4.08139C160.936 3.19401 161.798 2.50354 162.81 2.00998C163.832 1.51638 164.909 1.26796 166.04 1.26473C167.01 1.26195 167.864 1.44617 168.601 1.8174C169.349 2.17792 169.926 2.69894 170.334 3.38044C170.741 4.05128 170.946 4.84003 170.948 5.74669C170.95 6.17336 170.903 6.62149 170.808 7.0911C170.566 8.23313 170.089 9.24783 169.377 10.1352C168.665 11.0119 167.803 11.6971 166.791 12.1906C165.779 12.6842 164.713 12.9326 163.593 12.9358ZM164.161 10.2781C164.727 10.2765 165.27 10.147 165.792 9.88947C166.314 9.63197 166.761 9.26269 167.133 8.78163C167.516 8.30053 167.775 7.73978 167.912 7.09939C167.975 6.77921 168.006 6.47512 168.006 6.18712C168.004 5.47245 167.783 4.91842 167.345 4.525C166.917 4.13156 166.298 3.936 165.487 3.93832C164.901 3.94 164.346 4.07492 163.824 4.34308C163.302 4.60058 162.855 4.96986 162.483 5.45092C162.112 5.92133 161.857 6.47672 161.72 7.11712C161.646 7.42666 161.61 7.74143 161.611 8.06143C161.613 8.7761 161.828 9.32482 162.256 9.70759C162.694 10.0903 163.329 10.2805 164.161 10.2781ZM173.253 1.48408L176.133 1.47583L178.856 8.12406L180.245 1.46406L182.997 1.45618L180.661 12.6469L177.957 12.6547L175.218 5.99047L173.829 12.6665L170.917 12.6748L173.253 1.48408ZM192.285 3.8136L189.133 3.82262L189.638 1.43717L198.79 1.41096L198.285 3.79642L195.117 3.80549L193.286 12.6108L190.454 12.6189L192.285 3.8136ZM199.827 1.408L202.659 1.39989L200.323 12.5906L197.491 12.5987L199.827 1.408ZM204.252 1.39533L206.892 1.38777L208.672 8.3107L213.372 1.36922L216.156 1.36125L213.82 12.552L211.18 12.5595L212.348 6.94017L208.508 12.5672L207.228 12.5709L205.74 6.95909L204.572 12.5785L201.916 12.5861L204.252 1.39533ZM217.756 1.35667L225.692 1.33395L225.187 3.7194L220.083 3.73401L219.657 5.83124L223.385 5.82057L222.911 8.04594L219.183 8.05661L218.741 10.1539L223.845 10.1393L223.356 12.5247L215.42 12.5474L217.756 1.35667ZM3.77464 39.3934C2.68665 39.3966 1.82737 39.1857 1.19682 38.7608C0.566237 38.3253 0.249815 37.7129 0.247556 36.9235C0.247036 36.7422 0.273062 36.5181 0.325631 36.2513C0.599146 34.9172 1.52409 33.8479 3.10046 33.0433C2.85421 32.724 2.66667 32.4206 2.53785 32.1329C2.409 31.8346 2.34408 31.5148 2.3431 31.1735C2.34246 30.9495 2.36318 30.7361 2.40527 30.5333C2.58425 29.7115 3.03566 29.0382 3.75949 28.5134C4.49399 27.9887 5.39457 27.7248 6.46124 27.7217C7.35723 27.7191 8.05116 27.9251 8.54301 28.3397C9.04551 28.7436 9.2977 29.2762 9.29959 29.9376C9.3002 30.1509 9.27942 30.343 9.23724 30.5138C9.11098 31.1221 8.86712 31.6348 8.50564 32.0519C8.1548 32.4582 7.62266 32.8757 6.90922 33.3044L8.49862 35.1879C8.77485 34.8031 9.01302 34.1624 9.21312 33.2658L11.6131 33.259C11.4342 34.1128 11.2282 34.8121 10.9951 35.3567C10.762 35.8908 10.4329 36.4304 10.0077 36.9756L11.7899 39.1305L8.34994 39.1403L7.67574 38.3743C7.18608 38.7277 6.62148 38.9853 5.98195 39.1471C5.35307 39.3089 4.6173 39.391 3.77464 39.3934ZM5.48161 32.0445C5.91824 31.7979 6.23761 31.5784 6.43973 31.3858C6.64184 31.1932 6.77453 30.9688 6.8378 30.7126C6.85883 30.6059 6.86927 30.5259 6.86911 30.4725C6.86847 30.2485 6.78797 30.0728 6.6276 29.9452C6.4779 29.8177 6.28039 29.7542 6.03506 29.7549C5.73639 29.7558 5.48064 29.8418 5.26779 30.0131C5.05492 30.1737 4.91692 30.4088 4.85381 30.7183C4.83278 30.825 4.82231 30.8944 4.82241 30.9264C4.82289 31.0971 4.87137 31.2623 4.96782 31.422C5.07492 31.571 5.24618 31.7785 5.48161 32.0445ZM4.441 37.4235C5.23033 37.4213 5.86442 37.2168 6.34326 36.8101L4.60926 34.719C4.15118 34.923 3.79981 35.1427 3.55514 35.378C3.32115 35.6134 3.16731 35.9018 3.09362 36.2434C3.07265 36.3714 3.06225 36.4621 3.0624 36.5155C3.06328 36.8248 3.18661 37.0538 3.43237 37.2024C3.68879 37.351 4.02501 37.4247 4.441 37.4235ZM25.0025 27.9086L27.7865 27.9006L29.9145 39.0786L27.0985 39.0867L26.6759 36.7839L22.5479 36.7957L21.1785 39.1036L18.1865 39.1122L25.0025 27.9086ZM26.4297 34.6086L25.8589 30.8502L23.6937 34.6164L26.4297 34.6086ZM33.5337 27.8842L36.3657 27.8761L34.5189 36.6814L39.3829 36.6675L38.8937 39.0529L31.1977 39.0749L33.5337 27.8842ZM42.1937 27.8594L45.0256 27.8513L43.1788 36.6566L48.0428 36.6427L47.5536 39.0281L39.8577 39.0501L42.1937 27.8594ZM58.5379 30.1966L55.3859 30.2056L55.8911 27.8202L65.0431 27.794L64.5379 30.1794L61.3699 30.1885L59.5391 38.9938L56.7071 39.0019L58.5379 30.1966ZM66.0798 27.791L68.9118 27.7829L66.5758 38.9736L63.7438 38.9817L66.0798 27.791ZM70.5054 27.7783L73.1454 27.7708L74.9252 34.6937L79.6254 27.7522L82.4094 27.7443L80.0734 38.935L77.4334 38.9426L78.6013 33.3232L74.7614 38.9502L73.4814 38.9539L71.9933 33.3421L70.8254 38.9615L68.1694 38.9691L70.5054 27.7783ZM84.0091 27.7397L91.9451 27.717L91.4399 30.1024L86.3359 30.117L85.9099 32.2143L89.6379 32.2036L89.1643 34.429L85.4363 34.4396L84.9943 36.5369L90.0983 36.5223L89.6091 38.9077L81.6731 38.9304L84.0091 27.7397ZM102.206 39.1116C101.267 39.1143 100.419 38.9354 99.6602 38.5749C98.9018 38.2144 98.303 37.6935 97.8637 37.0121C97.4244 36.32 97.2034 35.5153 97.2008 34.5979C97.1996 34.1819 97.2464 33.7498 97.3411 33.3015C97.5937 32.1061 98.0494 31.0702 98.7082 30.1936C99.367 29.3064 100.202 28.6267 101.214 28.1544C102.226 27.6822 103.372 27.4442 104.652 27.4406C105.452 27.4383 106.151 27.5163 106.749 27.6746C107.347 27.8329 107.876 28.082 108.335 28.422L107.767 31.1117C107.382 30.7394 106.912 30.4688 106.357 30.2997C105.801 30.1306 105.14 30.0472 104.372 30.0494C103.273 30.0525 102.362 30.3432 101.638 30.9212C100.925 31.4993 100.464 32.2899 100.253 33.2932C100.158 33.7201 100.111 34.1149 100.112 34.4776C100.114 35.1603 100.335 35.677 100.773 36.0277C101.222 36.3678 101.969 36.5363 103.014 36.5333C103.782 36.5311 104.486 36.4384 105.126 36.2553C105.776 36.0721 106.404 35.7823 107.011 35.3859L106.443 38.0595C105.293 38.7561 103.88 39.1068 102.206 39.1116ZM112.786 39.0813C111.815 39.0841 110.956 38.9052 110.208 38.5447C109.471 38.1735 108.894 37.6525 108.476 36.9817C108.068 36.3108 107.863 35.5274 107.861 34.6314C107.86 34.2048 107.906 33.7513 108.001 33.271C108.243 32.129 108.715 31.1143 109.416 30.227C110.128 29.3396 110.99 28.6491 112.002 28.1555C113.025 27.6619 114.102 27.4135 115.232 27.4103C116.203 27.4075 117.057 27.5917 117.794 27.963C118.542 28.3235 119.119 28.8445 119.526 29.526C119.934 30.1968 120.139 30.9856 120.141 31.8923C120.142 32.3189 120.096 32.7671 120.001 33.2367C119.759 34.3787 119.282 35.3934 118.57 36.2808C117.858 37.1575 116.995 37.8426 115.984 38.3362C114.972 38.8298 113.906 39.0781 112.786 39.0813ZM113.354 36.4237C113.919 36.4221 114.463 36.2925 114.985 36.035C115.507 35.7775 115.954 35.4083 116.326 34.9272C116.708 34.4461 116.968 33.8853 117.105 33.245C117.168 32.9248 117.199 32.6207 117.198 32.3327C117.196 31.618 116.976 31.064 116.538 30.6706C116.11 30.2771 115.491 30.0816 114.68 30.0839C114.093 30.0856 113.539 30.2205 113.017 30.4886C112.495 30.7461 112.048 31.1154 111.676 31.5965C111.304 32.0669 111.05 32.6223 110.913 33.2627C110.839 33.5722 110.803 33.887 110.804 34.207C110.806 34.9217 111.021 35.4704 111.448 35.8532C111.887 36.2359 112.522 36.4261 113.354 36.4237ZM123.128 39.0517C122.424 39.0537 121.736 38.9864 121.064 38.8496C120.402 38.7235 119.873 38.5437 119.478 38.3102L120.015 35.7646C120.528 36.0618 121.078 36.2843 121.665 36.4319C122.263 36.5795 122.844 36.6525 123.409 36.6509C123.985 36.6493 124.428 36.552 124.737 36.3591C125.056 36.1555 125.215 35.8777 125.214 35.5257C125.213 35.2591 125.085 35.0354 124.828 34.8548C124.572 34.6742 124.091 34.425 123.386 34.107C122.585 33.7466 121.997 33.3536 121.623 32.928C121.248 32.4918 121.06 31.9856 121.058 31.4096C121.058 31.2176 121.084 30.9776 121.136 30.6894C121.347 29.6968 121.889 28.9006 122.761 28.3007C123.634 27.6902 124.738 27.3831 126.071 27.3793C126.754 27.3773 127.351 27.4289 127.863 27.5341C128.376 27.6393 128.851 27.8086 129.289 28.0421L128.768 30.5236C127.945 30.0352 127.054 29.7925 126.094 29.7952C125.582 29.7967 125.155 29.8832 124.815 30.0549C124.484 30.2158 124.282 30.4511 124.209 30.7606C124.198 30.8033 124.193 30.862 124.193 30.9367C124.194 31.182 124.328 31.3949 124.595 31.5755C124.873 31.756 125.364 31.9946 126.069 32.2913C126.902 32.6622 127.5 33.0499 127.864 33.4542C128.228 33.8478 128.411 34.3326 128.412 34.9086C128.413 35.1539 128.382 35.4313 128.319 35.7409C128.109 36.7975 127.588 37.615 126.758 38.1933C125.927 38.7611 124.718 39.0472 123.128 39.0517ZM132.989 29.9835L129.837 29.9925L130.343 27.607L139.495 27.5808L138.989 29.9663L135.821 29.9754L133.991 38.7806L131.159 38.7887L132.989 29.9835Z" fill="#002356"/>
<path d="M74.5872 1.76655L78.6032 1.75505C79.5952 1.75221 80.4704 1.93637 81.2288 2.30754C81.9872 2.66804 82.5753 3.18369 82.9932 3.85449C83.4218 4.5146 83.6373 5.28199 83.6398 6.15665C83.6409 6.54065 83.6046 6.91409 83.531 7.27697C83.1631 9.15536 82.3671 10.571 81.1432 11.5238C79.9299 12.466 78.3685 12.9398 76.4592 12.9452L72.2512 12.9573L74.5872 1.76655ZM76.9164 10.5599C77.8871 10.5571 78.6916 10.2668 79.3299 9.68901C79.9682 9.10051 80.3979 8.29928 80.619 7.2853C80.7031 6.8584 80.7448 6.49027 80.7439 6.18094C80.742 5.53028 80.5539 5.02948 80.1796 4.67855C79.8159 4.31693 79.2073 4.13733 78.354 4.13978L76.914 4.1439L75.5724 10.5638L76.9164 10.5599ZM85.9659 1.73397L93.9019 1.71125L93.3967 4.09671L88.2927 4.11132L87.8667 6.20855L91.5947 6.19788L91.1211 8.42324L87.3931 8.43392L86.9511 10.5312L92.0551 10.5166L91.5659 12.902L83.6299 12.9247L85.9659 1.73397ZM95.1884 1.70757L98.0204 1.69946L96.1736 10.5048L101.038 10.4909L100.548 12.8763L92.8524 12.8983L95.1884 1.70757ZM103.848 1.68278L106.68 1.67467L104.344 12.8654L101.512 12.8735L103.848 1.68278ZM107.954 1.67102L110.882 1.66264L112.167 9.09899L116.578 1.64633L119.682 1.63745L112.882 12.841L110.098 12.8489L107.954 1.67102ZM120.965 1.63377L128.901 1.61105L128.396 3.99651L123.292 4.01112L122.866 6.10835L126.594 6.09768L126.12 8.32304L122.392 8.33372L121.95 10.431L127.054 10.4164L126.565 12.8018L118.629 12.8245L120.965 1.63377ZM130.188 1.60737L135.212 1.59299C136.278 1.58993 137.122 1.85419 137.742 2.38575C138.373 2.91727 138.689 3.63637 138.692 4.54303C138.693 4.82037 138.662 5.11379 138.599 5.42331C138.43 6.25579 138.102 6.96607 137.613 7.55414C137.134 8.14218 136.533 8.58123 135.808 8.87131L136.972 12.772L134.06 12.7803L133.01 9.27932L131.41 9.2839L130.684 12.79L127.852 12.7981L130.188 1.60737ZM133.611 6.89359C134.176 6.89197 134.634 6.78399 134.986 6.56965C135.337 6.34465 135.571 5.96531 135.687 5.43164C135.729 5.19685 135.749 5.04213 135.749 4.96746C135.748 4.59413 135.619 4.3385 135.363 4.20056C135.117 4.05193 134.754 3.97831 134.274 3.97968L132.514 3.98472L131.915 6.89845L133.611 6.89359ZM142 8.50158L139.324 1.58121L142.252 1.57283L143.865 5.90423L147.42 1.55803L150.524 1.54915L144.832 8.49347L143.948 12.752L141.116 12.7601L142 8.50158ZM233.665 12.7352C232.961 12.7372 232.272 12.6698 231.6 12.5331C230.938 12.407 230.41 12.2272 230.014 11.9936L230.551 9.44807C231.064 9.74527 231.614 9.96769 232.201 10.1153C232.799 10.263 233.38 10.336 233.946 10.3344C234.522 10.3327 234.964 10.2354 235.273 10.0426C235.592 9.83897 235.752 9.56118 235.751 9.20918C235.75 8.94252 235.621 8.71888 235.365 8.53828C235.108 8.35768 234.627 8.10839 233.922 7.79041C233.121 7.43003 232.534 7.03705 232.159 6.61145C231.785 6.17519 231.596 5.66906 231.595 5.09306C231.594 4.90106 231.62 4.66099 231.673 4.37284C231.883 3.38023 232.425 2.58401 233.298 1.98417C234.171 1.37367 235.274 1.06651 236.607 1.06269C237.29 1.06074 237.887 1.11236 238.4 1.21756C238.912 1.32276 239.387 1.49207 239.825 1.72548L239.304 4.20699C238.482 3.71867 237.59 3.47589 236.63 3.47864C236.118 3.48011 235.692 3.56666 235.351 3.7383C235.021 3.89925 234.819 4.1345 234.745 4.44404C234.734 4.48674 234.729 4.54542 234.729 4.62009C234.73 4.86542 234.864 5.07837 235.131 5.25894C235.409 5.43948 235.9 5.67807 236.605 5.97472C237.438 6.34567 238.037 6.73329 238.401 7.13759C238.764 7.53121 238.947 8.01602 238.949 8.59202C238.95 8.83735 238.918 9.11478 238.855 9.42429C238.645 10.4809 238.125 11.2984 237.294 11.8768C236.464 12.4445 235.254 12.7306 233.665 12.7352ZM244.454 12.7043C243.121 12.7081 242.09 12.375 241.363 11.7051C240.636 11.0352 240.271 10.1402 240.267 9.02025C240.266 8.62558 240.313 8.21478 240.408 7.78784L241.765 1.28793L244.597 1.27982L243.224 7.81178C243.15 8.20666 243.114 8.50543 243.115 8.7081C243.116 9.17743 243.261 9.52368 243.55 9.74686C243.838 9.97003 244.324 10.0806 245.006 10.0787C245.774 10.0765 246.377 9.8881 246.813 9.51351C247.26 9.1389 247.562 8.56736 247.72 7.79891L249.093 1.26695L251.925 1.25884L250.568 7.75875C249.873 11.0461 247.835 12.6946 244.454 12.7043ZM253.443 1.2545L258.371 1.24039C259.427 1.23736 260.281 1.50159 260.933 2.03306C261.596 2.56449 261.929 3.30488 261.931 4.25421C261.932 4.52087 261.901 4.80896 261.838 5.11848C261.575 6.39924 261.007 7.3822 260.134 8.06737C259.272 8.74184 258.137 9.08109 256.729 9.08512L254.633 9.09112L253.939 12.4371L251.107 12.4452L253.443 1.2545ZM256.786 6.70095C257.426 6.69911 257.911 6.58573 258.241 6.36078C258.571 6.13583 258.8 5.72451 258.926 5.12682C258.968 4.89203 258.989 4.7373 258.988 4.66263C258.987 4.27864 258.848 4.01237 258.57 3.86383C258.292 3.70462 257.908 3.62572 257.418 3.62713L255.77 3.63185L255.138 6.70567L256.786 6.70095ZM263.54 1.22559L268.468 1.21148C269.524 1.20846 270.378 1.47268 271.03 2.00415C271.693 2.53559 272.026 3.27597 272.029 4.2253C272.03 4.49196 271.998 4.78005 271.935 5.08957C271.672 6.37033 271.104 7.35329 270.232 8.03846C269.37 8.71293 268.235 9.05218 266.827 9.05621L264.731 9.06221L264.036 12.4082L261.204 12.4163L263.54 1.22559ZM266.884 6.67204C267.524 6.67021 268.009 6.55682 268.339 6.33187C268.669 6.10693 268.897 5.6956 269.023 5.09791C269.065 4.86312 269.086 4.70839 269.086 4.63373C269.085 4.24973 268.945 3.98346 268.668 3.83492C268.39 3.67571 268.006 3.59681 267.515 3.59822L265.867 3.60294L265.236 6.67676L266.884 6.67204ZM276.934 12.6113C275.964 12.6141 275.104 12.4352 274.357 12.0747C273.62 11.7034 273.042 11.1824 272.624 10.5116C272.217 9.84078 272.012 9.05737 272.01 8.16137C272.008 7.73471 272.055 7.28124 272.15 6.80096C272.392 5.65893 272.863 4.64424 273.565 3.7569C274.277 2.86952 275.139 2.17905 276.151 1.68549C277.174 1.19189 278.25 0.943473 279.381 0.940236C280.352 0.937457 281.205 1.12168 281.943 1.49291C282.69 1.85343 283.268 2.37445 283.675 3.05595C284.082 3.72679 284.287 4.51554 284.29 5.4222C284.291 5.84887 284.244 6.297 284.15 6.76661C283.908 7.90864 283.43 8.92334 282.718 9.81072C282.006 10.6874 281.144 11.3726 280.132 11.8661C279.12 12.3597 278.054 12.6081 276.934 12.6113ZM277.503 9.95365C278.068 9.95203 278.612 9.82248 279.134 9.56498C279.656 9.30748 280.102 8.9382 280.474 8.45714C280.857 7.97604 281.117 7.41529 281.254 6.7749C281.317 6.45472 281.348 6.15063 281.347 5.86263C281.345 5.14796 281.125 4.59393 280.686 4.20051C280.258 3.80707 279.639 3.61151 278.829 3.61383C278.242 3.61551 277.688 3.75043 277.166 4.01859C276.644 4.27609 276.197 4.64537 275.825 5.12643C275.453 5.59683 275.198 6.15223 275.062 6.79263C274.988 7.10217 274.951 7.41694 274.952 7.73694C274.954 8.45161 275.169 9.00033 275.597 9.3831C276.036 9.76585 276.671 9.95603 277.503 9.95365ZM286.594 1.15958L291.618 1.1452C292.685 1.14215 293.529 1.4064 294.149 1.93796C294.78 2.46949 295.096 3.18859 295.099 4.09525C295.1 4.37258 295.069 4.66601 295.005 4.97552C294.837 5.80801 294.508 6.51828 294.02 7.10635C293.541 7.69439 292.94 8.13345 292.215 8.42352L293.378 12.3242L290.466 12.3325L289.416 8.83154L287.816 8.83612L287.09 12.3422L284.258 12.3503L286.594 1.15958ZM290.018 6.44581C290.583 6.44419 291.041 6.33621 291.393 6.12187C291.744 5.89686 291.978 5.51753 292.093 4.98386C292.135 4.74907 292.156 4.59434 292.156 4.51968C292.155 4.14635 292.026 3.89071 291.77 3.75278C291.524 3.60415 291.161 3.53052 290.681 3.5319L288.921 3.53693L288.322 6.45066L290.018 6.44581ZM298.622 3.50916L295.47 3.51818L295.976 1.13273L305.128 1.10653L304.622 3.49198L301.454 3.50105L299.624 12.3063L296.792 12.3144L298.622 3.50916ZM147.218 38.9828C146.514 38.9848 145.825 38.9174 145.153 38.7807C144.491 38.6546 143.963 38.4748 143.567 38.2412L144.104 35.6957C144.617 35.9929 145.167 36.2153 145.754 36.3629C146.352 36.5106 146.933 36.5836 147.499 36.582C148.075 36.5803 148.517 36.483 148.826 36.2902C149.145 36.0866 149.304 35.8088 149.303 35.4568C149.303 35.1901 149.174 34.9665 148.918 34.7859C148.661 34.6053 148.18 34.356 147.475 34.038C146.674 33.6776 146.087 33.2846 145.712 32.8591C145.337 32.4228 145.149 31.9167 145.148 31.3407C145.147 31.1487 145.173 30.9086 145.226 30.6204C145.436 29.6278 145.978 28.8316 146.851 28.2318C147.724 27.6213 148.827 27.3141 150.16 27.3103C150.843 27.3083 151.44 27.36 151.953 27.4652C152.465 27.5704 152.94 27.7397 153.378 27.9731L152.857 30.4546C152.034 29.9663 151.143 29.7235 150.183 29.7262C149.671 29.7277 149.245 29.8143 148.904 29.9859C148.574 30.1468 148.372 30.3821 148.298 30.6916C148.287 30.7343 148.282 30.793 148.282 30.8677C148.283 31.113 148.417 31.326 148.684 31.5065C148.962 31.6871 149.453 31.9257 150.158 32.2223C150.991 32.5933 151.59 32.9809 151.954 33.3852C152.317 33.7788 152.5 34.2636 152.502 34.8396C152.502 35.085 152.471 35.3624 152.408 35.6719C152.198 36.7285 151.677 37.546 150.847 38.1244C150.017 38.6921 148.807 38.9782 147.218 38.9828ZM158.839 27.5254L161.623 27.5175L163.751 38.6954L160.935 38.7035L160.513 36.4007L156.385 36.4125L155.015 38.7204L152.023 38.729L158.839 27.5254ZM160.267 34.2254L159.696 30.467L157.531 34.2332L160.267 34.2254ZM164.738 27.5086L167.666 27.5002L168.951 34.9365L173.362 27.4839L176.466 27.475L169.666 38.6785L166.882 38.6865L164.738 27.5086ZM177.749 27.4713L180.581 27.4632L178.245 38.6539L175.413 38.662L177.749 27.4713ZM182.175 27.4586L185.055 27.4504L187.778 34.0986L189.167 27.4386L191.919 27.4307L189.583 38.6215L186.879 38.6292L184.14 31.965L182.751 38.641L179.839 38.6494L182.175 27.4586ZM196.899 38.8405C195.928 38.8433 195.064 38.6645 194.306 38.304C193.558 37.9434 192.97 37.4278 192.541 36.757C192.113 36.0862 191.897 35.2922 191.894 34.3748C191.893 33.9588 191.94 33.5107 192.034 33.0304C192.287 31.8457 192.753 30.815 193.434 29.9384C194.124 29.0511 194.976 28.3713 195.988 27.8991C197.01 27.4162 198.13 27.173 199.346 27.1695C200.156 27.1672 200.855 27.2452 201.442 27.4035C202.04 27.5511 202.569 27.7949 203.028 28.1349L202.476 30.8245C202.091 30.4523 201.616 30.187 201.05 30.0286C200.495 29.8595 199.833 29.7761 199.065 29.7783C197.956 29.7815 197.045 30.0721 196.332 30.6501C195.619 31.2175 195.157 32.0082 194.946 33.0221C194.862 33.4277 194.821 33.7851 194.822 34.0945C194.826 35.5665 195.734 36.2999 197.548 36.2947C198.113 36.293 198.609 36.1956 199.035 36.0024L199.414 34.2093L197.702 34.2142L198.112 32.229L202.512 32.2164L201.344 37.7878C200.055 38.4848 198.574 38.8357 196.899 38.8405ZM210.405 27.3778L215.333 27.3637C216.389 27.3607 217.243 27.6249 217.895 28.1564C218.558 28.6878 218.891 29.4282 218.893 30.3775C218.894 30.6442 218.863 30.9323 218.8 31.2418C218.537 32.5226 217.969 33.5055 217.096 34.1907C216.234 34.8652 215.099 35.2044 213.691 35.2084L211.595 35.2144L210.901 38.5604L208.069 38.5686L210.405 27.3778ZM213.748 32.8243C214.388 32.8224 214.873 32.709 215.203 32.4841C215.533 32.2592 215.762 31.8478 215.888 31.2501C215.93 31.0153 215.951 30.8606 215.951 30.786C215.95 30.402 215.81 30.1357 215.532 29.9871C215.255 29.8279 214.87 29.749 214.38 29.7504L212.732 29.7552L212.1 32.829L213.748 32.8243ZM220.737 27.3482L225.761 27.3339C226.827 27.3308 227.671 27.5951 228.291 28.1266C228.922 28.6581 229.239 29.3772 229.241 30.2839C229.242 30.5612 229.211 30.8547 229.148 31.1642C228.979 31.9967 228.651 32.7069 228.162 33.295C227.683 33.883 227.082 34.3221 226.357 34.6122L227.521 38.5129L224.609 38.5212L223.559 35.0202L221.959 35.0248L221.233 38.5309L218.401 38.539L220.737 27.3482ZM224.16 32.6345C224.725 32.6328 225.184 32.5249 225.535 32.3105C225.886 32.0855 226.12 31.7062 226.236 31.1725C226.278 30.9377 226.299 30.783 226.298 30.7083C226.297 30.335 226.169 30.0794 225.912 29.9414C225.666 29.7928 225.303 29.7192 224.823 29.7205L223.063 29.7256L222.464 32.6393L224.16 32.6345ZM234.303 38.7334C233.332 38.7362 232.473 38.5574 231.725 38.1968C230.988 37.8256 230.411 37.3046 229.993 36.6338C229.585 35.9629 229.38 35.1795 229.378 34.2835C229.377 33.8569 229.423 33.4034 229.518 32.9231C229.76 31.7811 230.232 30.7664 230.933 29.8791C231.645 28.9917 232.507 28.3012 233.519 27.8076C234.542 27.314 235.619 27.0656 236.749 27.0624C237.72 27.0596 238.574 27.2438 239.311 27.6151C240.059 27.9756 240.636 28.4966 241.043 29.1781C241.451 29.8489 241.656 30.6377 241.658 31.5444C241.659 31.971 241.613 32.4192 241.518 32.8888C241.276 34.0308 240.799 35.0455 240.087 35.9329C239.375 36.8096 238.512 37.4947 237.501 37.9883C236.489 38.4819 235.423 38.7302 234.303 38.7334ZM234.871 36.0758C235.436 36.0742 235.98 35.9446 236.502 35.6871C237.024 35.4296 237.471 35.0604 237.843 34.5793C238.225 34.0982 238.485 33.5375 238.622 32.8971C238.685 32.5769 238.716 32.2728 238.715 31.9848C238.713 31.2701 238.493 30.7161 238.055 30.3227C237.627 29.9292 237.008 29.7337 236.197 29.736C235.61 29.7377 235.056 29.8726 234.534 30.1407C234.012 30.3982 233.565 30.7675 233.193 31.2486C232.821 31.719 232.567 32.2744 232.43 32.9148C232.356 33.2243 232.32 33.5391 232.321 33.8591C232.323 34.5738 232.538 35.1225 232.965 35.5053C233.404 35.888 234.039 36.0782 234.871 36.0758ZM243.963 27.2817L247.979 27.2702C248.971 27.2674 249.846 27.4516 250.604 27.8227C251.363 28.1832 251.951 28.6989 252.369 29.3697C252.797 30.0298 253.013 30.7972 253.015 31.6718C253.017 32.0558 252.98 32.4293 252.907 32.7922C252.539 34.6706 251.743 36.0862 250.519 37.039C249.305 37.9812 247.744 38.455 245.835 38.4604L241.627 38.4725L243.963 27.2817ZM246.292 36.0751C247.263 36.0723 248.067 35.782 248.706 35.2042C249.344 34.6157 249.774 33.8145 249.995 32.8005C250.079 32.3736 250.12 32.0055 250.119 31.6961C250.118 31.0455 249.93 30.5447 249.555 30.1937C249.191 29.8321 248.583 29.6525 247.73 29.655L246.29 29.6591L244.948 36.079L246.292 36.0751ZM257.95 38.6657C256.617 38.6696 255.587 38.3365 254.859 37.6666C254.132 36.9967 253.767 36.1017 253.764 34.9817C253.763 34.5871 253.809 34.1762 253.904 33.7493L255.262 27.2494L258.094 27.2413L256.72 33.7732C256.647 34.1681 256.61 34.4669 256.611 34.6696C256.612 35.1389 256.757 35.4851 257.046 35.7083C257.334 35.9315 257.82 36.0421 258.503 36.0402C259.271 36.038 259.873 35.8496 260.309 35.475C260.756 35.1004 261.058 34.5288 261.216 33.7604L262.59 27.2284L265.421 27.2203L264.064 33.7202C263.37 37.0076 261.332 38.6561 257.95 38.6657ZM270.316 38.6303C269.377 38.633 268.529 38.4541 267.77 38.0936C267.012 37.7331 266.413 37.2122 265.974 36.5308C265.534 35.8387 265.313 35.034 265.311 34.1167C265.31 33.7007 265.356 33.2685 265.451 32.8202C265.704 31.6249 266.159 30.5889 266.818 29.7123C267.477 28.8251 268.312 28.1454 269.324 27.6731C270.336 27.2009 271.482 26.963 272.762 26.9593C273.562 26.957 274.261 27.035 274.859 27.1933C275.457 27.3516 275.985 27.6007 276.445 27.9408L275.877 30.6304C275.492 30.2582 275.022 29.9875 274.466 29.8184C273.911 29.6493 273.25 29.5659 272.482 29.5681C271.383 29.5713 270.472 29.8619 269.748 30.4399C269.035 31.018 268.573 31.8086 268.363 32.8119C268.268 33.2389 268.221 33.6337 268.222 33.9963C268.224 34.679 268.445 35.1957 268.883 35.5464C269.332 35.8865 270.079 36.055 271.124 36.052C271.892 36.0498 272.596 35.9571 273.236 35.774C273.886 35.5908 274.514 35.301 275.121 34.9046L274.553 37.5782C273.403 38.2748 271.99 38.6255 270.316 38.6303ZM280.014 29.5625L276.862 29.5716L277.367 27.1861L286.519 27.1599L286.014 29.5454L282.846 29.5544L281.015 38.3597L278.183 38.3678L280.014 29.5625ZM288.238 38.579C287.534 38.581 286.846 38.5137 286.174 38.3769C285.512 38.2508 284.983 38.071 284.588 37.8375L285.125 35.2919C285.638 35.5891 286.188 35.8116 286.775 35.9592C287.372 36.1068 287.954 36.1798 288.519 36.1782C289.095 36.1766 289.538 36.0793 289.847 35.8864C290.166 35.6828 290.325 35.405 290.324 35.053C290.323 34.7864 290.195 34.5627 289.938 34.3821C289.682 34.2015 289.201 33.9523 288.496 33.6343C287.695 33.2739 287.107 32.8809 286.733 32.4553C286.358 32.0191 286.17 31.5129 286.168 30.9369C286.168 30.7449 286.194 30.5049 286.246 30.2167C286.457 29.2241 286.998 28.4279 287.871 27.828C288.744 27.2175 289.847 26.9104 291.181 26.9066C291.863 26.9046 292.461 26.9562 292.973 27.0614C293.486 27.1666 293.961 27.3359 294.399 27.5693L293.878 30.0509C293.055 29.5625 292.164 29.3198 291.204 29.3225C290.692 29.324 290.265 29.4105 289.924 29.5822C289.594 29.7431 289.392 29.9784 289.318 30.2879C289.308 30.3306 289.303 30.3893 289.303 30.464C289.304 30.7093 289.438 30.9222 289.705 31.1028C289.983 31.2833 290.474 31.5219 291.179 31.8186C292.012 32.1895 292.61 32.5772 292.974 32.9815C293.338 33.3751 293.521 33.8599 293.522 34.4359C293.523 34.6812 293.492 34.9586 293.429 35.2682C293.218 36.3248 292.698 37.1423 291.868 37.7206C291.037 38.2884 289.828 38.5745 288.238 38.579ZM294.771 38.3203C294.526 38.321 294.323 38.2523 294.162 38.1141C294.013 37.9652 293.937 37.7787 293.937 37.5547C293.936 37.224 294.063 36.9304 294.318 36.6736C294.573 36.4169 294.861 36.2881 295.181 36.2871C295.437 36.2864 295.64 36.3658 295.79 36.5254C295.939 36.6743 296.015 36.8714 296.015 37.1168C296.016 37.4368 295.889 37.7198 295.634 37.9659C295.379 38.2013 295.091 38.3194 294.771 38.3203Z" fill="#09864A"/>
<path d="M148.369 11.7474L151.281 11.739L148.891 15.1219L146.347 15.1292L148.369 11.7474Z" fill="black"/>
</svg>
