<svg width="213" height="21" viewBox="0 0 213 21" fill="none" xmlns="http://www.w3.org/2000/svg">
<path d="M6.468 3.368H0.56V0.427998H15.932V3.368H10.024V20H6.468V3.368ZM26.465 20.42C24.505 20.42 22.7317 20 21.145 19.16C19.577 18.3013 18.3357 17.0973 17.421 15.548C16.525 13.9987 16.077 12.2253 16.077 10.228C16.077 8.23067 16.525 6.45733 17.421 4.908C18.3357 3.35867 19.577 2.15467 21.145 1.296C22.7317 0.437332 24.505 0.0079987 26.465 0.0079987C28.4064 0.0079987 30.161 0.437332 31.729 1.296C33.3157 2.15467 34.557 3.35867 35.453 4.908C36.3677 6.45733 36.825 8.23067 36.825 10.228C36.825 12.2253 36.3677 13.9987 35.453 15.548C34.557 17.0787 33.3157 18.2733 31.729 19.132C30.161 19.9907 28.4064 20.42 26.465 20.42ZM26.465 17.2C27.7157 17.2 28.8544 16.92 29.881 16.36C30.9077 15.7813 31.7197 14.9693 32.317 13.924C32.933 12.86 33.241 11.628 33.241 10.228C33.241 8.84667 32.9424 7.63333 32.345 6.588C31.7477 5.524 30.9357 4.70267 29.909 4.124C28.8824 3.54533 27.7344 3.256 26.465 3.256C25.1957 3.256 24.0384 3.54533 22.993 4.124C21.9664 4.70267 21.1544 5.524 20.557 6.588C19.9597 7.63333 19.661 8.84667 19.661 10.228C19.661 11.628 19.9597 12.86 20.557 13.924C21.173 14.9693 21.9944 15.7813 23.021 16.36C24.0664 16.92 25.2144 17.2 26.465 17.2ZM39.6331 0.427998H47.4731C49.6198 0.427998 51.3371 0.997332 52.6251 2.136C53.9318 3.27467 54.5851 4.83333 54.5851 6.812C54.5851 8.86533 53.9411 10.4333 52.6531 11.516C51.3651 12.58 49.6291 13.112 47.4451 13.112H43.1891V20H39.6331V0.427998ZM47.0251 10.172C49.6945 10.172 51.0291 9.052 51.0291 6.812C51.0291 4.516 49.6945 3.368 47.0251 3.368H43.1891V10.172H47.0251ZM66.9222 0.427998H74.7622C76.9089 0.427998 78.6262 0.997332 79.9142 2.136C81.2209 3.27467 81.8742 4.83333 81.8742 6.812C81.8742 8.86533 81.2302 10.4333 79.9422 11.516C78.6542 12.58 76.9182 13.112 74.7342 13.112H70.4782V20H66.9222V0.427998ZM74.3142 10.172C76.9835 10.172 78.3182 9.052 78.3182 6.812C78.3182 4.516 76.9835 3.368 74.3142 3.368H70.4782V10.172H74.3142ZM84.1214 0.427998H92.2974C94.4627 0.427998 96.1334 0.959999 97.3094 2.024C98.4854 3.088 99.0734 4.628 99.0734 6.644C99.0734 8.08133 98.7187 9.304 98.0094 10.312C97.3001 11.32 96.2921 12.0387 94.9854 12.468L98.9614 20H95.3214L91.5414 12.832H87.6774V20H84.1214V0.427998ZM91.6534 9.892C92.8107 9.892 93.7441 9.62133 94.4534 9.08C95.1627 8.53867 95.5174 7.72667 95.5174 6.644C95.5174 4.46 94.2294 3.368 91.6534 3.368H87.6774V9.892H91.6534ZM111.285 20.42C109.325 20.42 107.552 20 105.965 19.16C104.397 18.3013 103.156 17.0973 102.241 15.548C101.345 13.9987 100.897 12.2253 100.897 10.228C100.897 8.23067 101.345 6.45733 102.241 4.908C103.156 3.35867 104.397 2.15467 105.965 1.296C107.552 0.437332 109.325 0.0079987 111.285 0.0079987C113.227 0.0079987 114.981 0.437332 116.549 1.296C118.136 2.15467 119.377 3.35867 120.273 4.908C121.188 6.45733 121.645 8.23067 121.645 10.228C121.645 12.2253 121.188 13.9987 120.273 15.548C119.377 17.0787 118.136 18.2733 116.549 19.132C114.981 19.9907 113.227 20.42 111.285 20.42ZM111.285 17.2C112.536 17.2 113.675 16.92 114.701 16.36C115.728 15.7813 116.54 14.9693 117.137 13.924C117.753 12.86 118.061 11.628 118.061 10.228C118.061 8.84667 117.763 7.63333 117.165 6.588C116.568 5.524 115.756 4.70267 114.729 4.124C113.703 3.54533 112.555 3.256 111.285 3.256C110.016 3.256 108.859 3.54533 107.813 4.124C106.787 4.70267 105.975 5.524 105.377 6.588C104.78 7.63333 104.481 8.84667 104.481 10.228C104.481 11.628 104.78 12.86 105.377 13.924C105.993 14.9693 106.815 15.7813 107.841 16.36C108.887 16.92 110.035 17.2 111.285 17.2ZM124.453 0.427998H131.005C133.133 0.427998 134.981 0.819999 136.549 1.604C138.117 2.388 139.321 3.508 140.161 4.964C141.001 6.42 141.421 8.13733 141.421 10.116C141.421 13.364 140.479 15.828 138.593 17.508C136.708 19.1693 134.076 20 130.697 20H124.453V0.427998ZM130.753 17.06C133.031 17.06 134.776 16.4533 135.989 15.24C137.221 14.008 137.837 12.3 137.837 10.116C137.837 8.79067 137.567 7.624 137.025 6.616C136.484 5.58933 135.709 4.796 134.701 4.236C133.693 3.65733 132.499 3.368 131.117 3.368H128.009V17.06H130.753ZM152.455 20.42C149.692 20.42 147.602 19.7013 146.183 18.264C144.783 16.808 144.083 14.848 144.083 12.384V0.427998H147.639V12.44C147.639 13.9893 148.068 15.1747 148.927 15.996C149.804 16.7987 150.98 17.2 152.455 17.2C153.911 17.2 155.068 16.7987 155.927 15.996C156.804 15.1747 157.243 13.9893 157.243 12.44V0.427998H160.799V12.384C160.799 14.848 160.099 16.808 158.699 18.264C157.299 19.7013 155.218 20.42 152.455 20.42ZM173.932 20.42C171.879 20.42 170.059 20.0093 168.472 19.188C166.885 18.348 165.653 17.1627 164.776 15.632C163.899 14.0827 163.46 12.2813 163.46 10.228C163.46 8.17467 163.899 6.38267 164.776 4.852C165.653 3.30267 166.885 2.108 168.472 1.268C170.059 0.427999 171.879 0.0079987 173.932 0.0079987C176.639 0.0079987 178.897 0.651999 180.708 1.94V5.328C179.084 3.94667 176.928 3.256 174.24 3.256C172.803 3.256 171.543 3.54533 170.46 4.124C169.377 4.684 168.537 5.48667 167.94 6.532C167.343 7.57733 167.044 8.80933 167.044 10.228C167.044 11.6467 167.343 12.8787 167.94 13.924C168.556 14.9693 169.405 15.7813 170.488 16.36C171.571 16.92 172.821 17.2 174.24 17.2C175.621 17.2 176.853 17.032 177.936 16.696C179.019 16.3413 180.017 15.7813 180.932 15.016V18.404C179.215 19.748 176.881 20.42 173.932 20.42ZM188.386 3.368H182.478V0.427998H197.85V3.368H191.942V20H188.386V3.368ZM205.031 20.42C203.874 20.42 202.726 20.308 201.587 20.084C200.467 19.8787 199.543 19.5987 198.815 19.244V16.192C199.749 16.64 200.729 16.976 201.755 17.2C202.782 17.424 203.79 17.536 204.779 17.536C206.03 17.536 206.982 17.3027 207.635 16.836C208.289 16.3693 208.615 15.7253 208.615 14.904C208.615 14.3253 208.466 13.8493 208.167 13.476C207.869 13.084 207.43 12.748 206.851 12.468C206.273 12.1693 205.386 11.7867 204.191 11.32C202.362 10.5733 201.037 9.74267 200.215 8.828C199.394 7.91333 198.983 6.77467 198.983 5.412C198.983 4.348 199.273 3.40533 199.851 2.584C200.43 1.76267 201.242 1.128 202.287 0.679998C203.333 0.231999 204.537 0.0079987 205.899 0.0079987C207.019 0.0079987 208.009 0.101332 208.867 0.287998C209.745 0.455999 210.603 0.726666 211.443 1.1V4.068C209.819 3.284 208.177 2.892 206.515 2.892C205.321 2.892 204.397 3.116 203.743 3.564C203.09 3.99333 202.763 4.60933 202.763 5.412C202.763 5.99067 202.913 6.46667 203.211 6.84C203.51 7.19467 203.902 7.50267 204.387 7.764C204.891 8.00667 205.787 8.39867 207.075 8.94C208.382 9.48133 209.409 10.0133 210.155 10.536C210.921 11.0587 211.49 11.6747 211.863 12.384C212.255 13.0747 212.451 13.924 212.451 14.932C212.451 16.668 211.826 18.0213 210.575 18.992C209.325 19.944 207.477 20.42 205.031 20.42Z" fill="black"/>
</svg>
