<svg width="403" height="41" viewBox="0 0 403 41" fill="none" xmlns="http://www.w3.org/2000/svg">
<path d="M28.096 0.269561H36.61V2.15956H30.382V5.61556H35.008V7.50556H30.382V10.9616H36.61V12.8516H28.096V0.269561ZM38.9586 0.269561H41.1186L47.0046 9.03556V0.269561H49.2906V12.8516H47.1306L41.2446 4.06756V12.8516H38.9586V0.269561ZM58.5486 13.1216C57.2286 13.1216 56.0586 12.8576 55.0386 12.3296C54.0186 11.7896 53.2266 11.0276 52.6626 10.0436C52.0986 9.04756 51.8166 7.88956 51.8166 6.56956C51.8166 5.24956 52.0986 4.09756 52.6626 3.11356C53.2266 2.11756 54.0186 1.34956 55.0386 0.809562C56.0586 0.269562 57.2286 -0.000438333 58.5486 -0.000438333C59.4486 -0.000438333 60.2526 0.0955619 60.9606 0.287562C61.6686 0.479562 62.3106 0.785562 62.8866 1.20556V3.38356C62.3586 2.92756 61.7526 2.59756 61.0686 2.39356C60.3846 2.18956 59.6106 2.08756 58.7466 2.08756C57.8826 2.08756 57.0966 2.27356 56.3886 2.64556C55.6926 3.00556 55.1406 3.52756 54.7326 4.21156C54.3246 4.88356 54.1206 5.66956 54.1206 6.56956C54.1206 7.48156 54.3126 8.27956 54.6966 8.96356C55.0806 9.63556 55.6146 10.1576 56.2986 10.5296C56.9826 10.8896 57.7626 11.0696 58.6386 11.0696C59.5626 11.0696 60.3246 10.9136 60.9246 10.6016V7.77556H58.8006V5.95756H63.2106V11.8256C62.0946 12.6896 60.5406 13.1216 58.5486 13.1216ZM65.7287 0.269561H68.0147V12.8516H65.7287V0.269561ZM70.8959 0.269561H73.0559L78.9419 9.03556V0.269561H81.2279V12.8516H79.0679L73.1819 4.06756V12.8516H70.8959V0.269561ZM84.114 0.269561H92.628V2.15956H86.4V5.61556H91.026V7.50556H86.4V10.9616H92.628V12.8516H84.114V0.269561ZM94.9766 0.269561H103.491V2.15956H97.2626V5.61556H101.889V7.50556H97.2626V10.9616H103.491V12.8516H94.9766V0.269561ZM105.839 0.269561H111.095C112.487 0.269561 113.561 0.611562 114.317 1.29556C115.073 1.97956 115.451 2.96956 115.451 4.26556C115.451 5.18956 115.223 5.97556 114.767 6.62356C114.311 7.27156 113.663 7.73356 112.823 8.00956L115.379 12.8516H113.039L110.609 8.24356H108.125V12.8516H105.839V0.269561ZM110.681 6.35356C111.425 6.35356 112.025 6.17956 112.481 5.83156C112.937 5.48356 113.165 4.96156 113.165 4.26556C113.165 2.86156 112.337 2.15956 110.681 2.15956H108.125V6.35356H110.681ZM117.967 0.269561H120.253V12.8516H117.967V0.269561ZM123.135 0.269561H125.295L131.181 9.03556V0.269561H133.467V12.8516H131.307L125.421 4.06756V12.8516H123.135V0.269561ZM142.725 13.1216C141.405 13.1216 140.235 12.8576 139.215 12.3296C138.195 11.7896 137.403 11.0276 136.839 10.0436C136.275 9.04756 135.993 7.88956 135.993 6.56956C135.993 5.24956 136.275 4.09756 136.839 3.11356C137.403 2.11756 138.195 1.34956 139.215 0.809562C140.235 0.269562 141.405 -0.000438333 142.725 -0.000438333C143.625 -0.000438333 144.429 0.0955619 145.137 0.287562C145.845 0.479562 146.487 0.785562 147.063 1.20556V3.38356C146.535 2.92756 145.929 2.59756 145.245 2.39356C144.561 2.18956 143.787 2.08756 142.923 2.08756C142.059 2.08756 141.273 2.27356 140.565 2.64556C139.869 3.00556 139.317 3.52756 138.909 4.21156C138.501 4.88356 138.297 5.66956 138.297 6.56956C138.297 7.48156 138.489 8.27956 138.873 8.96356C139.257 9.63556 139.791 10.1576 140.475 10.5296C141.159 10.8896 141.939 11.0696 142.815 11.0696C143.739 11.0696 144.501 10.9136 145.101 10.6016V7.77556H142.977V5.95756H147.387V11.8256C146.271 12.6896 144.717 13.1216 142.725 13.1216ZM161.791 0.269561H164.005L169.027 12.8516H166.705L165.553 9.95356H160.225L159.091 12.8516H156.751L161.791 0.269561ZM164.923 8.06356L162.889 2.71756L160.855 8.06356H164.923ZM171.542 0.269561H175.754C177.122 0.269561 178.31 0.521562 179.318 1.02556C180.326 1.52956 181.1 2.24956 181.64 3.18556C182.18 4.12156 182.45 5.22556 182.45 6.49756C182.45 8.58556 181.844 10.1696 180.632 11.2496C179.42 12.3176 177.728 12.8516 175.556 12.8516H171.542V0.269561ZM175.592 10.9616C177.056 10.9616 178.178 10.5716 178.958 9.79156C179.75 8.99956 180.146 7.90156 180.146 6.49756C180.146 5.64556 179.972 4.89556 179.624 4.24756C179.276 3.58756 178.778 3.07756 178.13 2.71756C177.482 2.34556 176.714 2.15956 175.826 2.15956H173.828V10.9616H175.592ZM184.971 0.269561H187.257V5.48956H193.305V0.269561H195.573V12.8516H193.305V7.37956H187.257V12.8516H184.971V0.269561ZM198.453 0.269561H206.967V2.15956H200.739V5.61556H205.365V7.50556H200.739V10.9616H206.967V12.8516H198.453V0.269561ZM212.951 13.1216C212.207 13.1216 211.469 13.0496 210.737 12.9056C210.017 12.7736 209.423 12.5936 208.955 12.3656V10.4036C209.555 10.6916 210.185 10.9076 210.845 11.0516C211.505 11.1956 212.153 11.2676 212.789 11.2676C213.593 11.2676 214.205 11.1176 214.625 10.8176C215.045 10.5176 215.255 10.1036 215.255 9.57556C215.255 9.20356 215.159 8.89756 214.967 8.65756C214.775 8.40556 214.493 8.18956 214.121 8.00956C213.749 7.81756 213.179 7.57156 212.411 7.27156C211.235 6.79156 210.383 6.25756 209.855 5.66956C209.327 5.08156 209.063 4.34956 209.063 3.47356C209.063 2.78956 209.249 2.18356 209.621 1.65556C209.993 1.12756 210.515 0.719562 211.187 0.431561C211.859 0.143562 212.633 -0.000438333 213.509 -0.000438333C214.229 -0.000438333 214.865 0.0595616 215.417 0.179561C215.981 0.287562 216.533 0.461562 217.073 0.701562V2.60956C216.029 2.10556 214.973 1.85356 213.905 1.85356C213.137 1.85356 212.543 1.99756 212.123 2.28556C211.703 2.56156 211.493 2.95756 211.493 3.47356C211.493 3.84556 211.589 4.15156 211.781 4.39156C211.973 4.61956 212.225 4.81756 212.537 4.98556C212.861 5.14156 213.437 5.39356 214.265 5.74156C215.105 6.08956 215.765 6.43156 216.245 6.76756C216.737 7.10356 217.103 7.49956 217.343 7.95556C217.595 8.39956 217.721 8.94556 217.721 9.59356C217.721 10.7096 217.319 11.5796 216.515 12.2036C215.711 12.8156 214.523 13.1216 212.951 13.1216ZM220.248 0.269561H222.534V12.8516H220.248V0.269561ZM225.055 0.269561H227.485L231.193 9.79156L234.919 0.269561H237.331L232.309 12.8516H230.095L225.055 0.269561ZM239.846 0.269561H248.36V2.15956H242.132V5.61556H246.758V7.50556H242.132V10.9616H248.36V12.8516H239.846V0.269561ZM254.345 13.1216C253.601 13.1216 252.863 13.0496 252.131 12.9056C251.411 12.7736 250.817 12.5936 250.349 12.3656V10.4036C250.949 10.6916 251.579 10.9076 252.239 11.0516C252.899 11.1956 253.547 11.2676 254.183 11.2676C254.987 11.2676 255.599 11.1176 256.019 10.8176C256.439 10.5176 256.649 10.1036 256.649 9.57556C256.649 9.20356 256.553 8.89756 256.361 8.65756C256.169 8.40556 255.887 8.18956 255.515 8.00956C255.143 7.81756 254.573 7.57156 253.805 7.27156C252.629 6.79156 251.777 6.25756 251.249 5.66956C250.721 5.08156 250.457 4.34956 250.457 3.47356C250.457 2.78956 250.643 2.18356 251.015 1.65556C251.387 1.12756 251.909 0.719562 252.581 0.431561C253.253 0.143562 254.027 -0.000438333 254.903 -0.000438333C255.623 -0.000438333 256.259 0.0595616 256.811 0.179561C257.375 0.287562 257.927 0.461562 258.467 0.701562V2.60956C257.423 2.10556 256.367 1.85356 255.299 1.85356C254.531 1.85356 253.937 1.99756 253.517 2.28556C253.097 2.56156 252.887 2.95756 252.887 3.47356C252.887 3.84556 252.983 4.15156 253.175 4.39156C253.367 4.61956 253.619 4.81756 253.931 4.98556C254.255 5.14156 254.831 5.39356 255.659 5.74156C256.499 6.08956 257.159 6.43156 257.639 6.76756C258.131 7.10356 258.497 7.49956 258.737 7.95556C258.989 8.39956 259.115 8.94556 259.115 9.59356C259.115 10.7096 258.713 11.5796 257.909 12.2036C257.105 12.8156 255.917 13.1216 254.345 13.1216ZM-0.000169016 27.2696H2.37583L4.87783 36.1616L7.34383 27.2696H9.10783L11.5738 36.1616L14.0758 27.2696H16.4518L12.8698 39.8516H10.7458L8.22583 31.1036L5.70583 39.8516H3.58183L-0.000169016 27.2696ZM18.9744 27.2696H21.2604V39.8516H18.9744V27.2696ZM27.2196 29.1596H23.4216V27.2696H33.3036V29.1596H29.5056V39.8516H27.2196V29.1596ZM35.4612 27.2696H37.7472V32.4896H43.7952V27.2696H46.0632V39.8516H43.7952V34.3796H37.7472V39.8516H35.4612V27.2696ZM56.1493 27.2696H61.1893C62.5693 27.2696 63.6733 27.6356 64.5013 28.3676C65.3413 29.0996 65.7613 30.1016 65.7613 31.3736C65.7613 32.6936 65.3473 33.7016 64.5193 34.3976C63.6913 35.0816 62.5753 35.4236 61.1713 35.4236H58.4353V39.8516H56.1493V27.2696ZM60.9013 33.5336C62.6173 33.5336 63.4753 32.8136 63.4753 31.3736C63.4753 29.8976 62.6173 29.1596 60.9013 29.1596H58.4353V33.5336H60.9013ZM67.9259 27.2696H73.1819C74.5739 27.2696 75.6479 27.6116 76.4039 28.2956C77.1599 28.9796 77.5379 29.9696 77.5379 31.2656C77.5379 32.1896 77.3099 32.9756 76.8539 33.6236C76.3979 34.2716 75.7499 34.7336 74.9099 35.0096L77.4659 39.8516H75.1259L72.6959 35.2436H70.2119V39.8516H67.9259V27.2696ZM72.7679 33.3536C73.5119 33.3536 74.1119 33.1796 74.5679 32.8316C75.0239 32.4836 75.2519 31.9616 75.2519 31.2656C75.2519 29.8616 74.4239 29.1596 72.7679 29.1596H70.2119V33.3536H72.7679ZM80.0541 27.2696H88.5681V29.1596H82.3401V32.6156H86.9661V34.5056H82.3401V37.9616H88.5681V39.8516H80.0541V27.2696ZM90.9167 27.2696H93.1487L97.3607 36.4856L101.573 27.2696H103.805V39.8516H101.645V31.6796L97.9007 39.8516H96.8207L93.0767 31.6796V39.8516H90.9167V27.2696ZM106.684 27.2696H108.97V39.8516H106.684V27.2696ZM117.143 40.1216C115.367 40.1216 114.023 39.6596 113.111 38.7356C112.211 37.7996 111.761 36.5396 111.761 34.9556V27.2696H114.047V34.9916C114.047 35.9876 114.323 36.7496 114.875 37.2776C115.439 37.7936 116.195 38.0516 117.143 38.0516C118.079 38.0516 118.823 37.7936 119.375 37.2776C119.939 36.7496 120.221 35.9876 120.221 34.9916V27.2696H122.507V34.9556C122.507 36.5396 122.057 37.7996 121.157 38.7356C120.257 39.6596 118.919 40.1216 117.143 40.1216ZM125.297 27.2696H127.529L131.741 36.4856L135.953 27.2696H138.185V39.8516H136.025V31.6796L132.281 39.8516H131.201L127.457 31.6796V39.8516H125.297V27.2696ZM154.877 39.8516C153.473 39.8516 152.243 39.5936 151.187 39.0776C150.143 38.5616 149.333 37.8236 148.757 36.8636C148.193 35.9036 147.911 34.7876 147.911 33.5156C147.911 32.2316 148.199 31.0976 148.775 30.1136C149.363 29.1176 150.161 28.3496 151.169 27.8096C152.189 27.2696 153.329 26.9996 154.589 26.9996C155.837 26.9996 156.965 27.2696 157.973 27.8096C158.993 28.3496 159.791 29.1176 160.367 30.1136C160.955 31.0976 161.249 32.2316 161.249 33.5156C161.249 34.3796 161.057 35.2076 160.673 35.9996C160.289 36.7796 159.791 37.3976 159.179 37.8536H161.483V39.8516H154.877ZM154.589 37.7816C155.921 37.7816 156.977 37.4096 157.757 36.6656C158.549 35.9216 158.945 34.8716 158.945 33.5156C158.945 32.6276 158.753 31.8476 158.369 31.1756C157.985 30.5036 157.463 29.9876 156.803 29.6276C156.143 29.2676 155.405 29.0876 154.589 29.0876C153.773 29.0876 153.029 29.2676 152.357 29.6276C151.697 29.9876 151.175 30.5036 150.791 31.1756C150.407 31.8476 150.215 32.6276 150.215 33.5156C150.215 34.8836 150.605 35.9396 151.385 36.6836C152.177 37.4156 153.245 37.7816 154.589 37.7816ZM168.943 40.1216C167.167 40.1216 165.823 39.6596 164.911 38.7356C164.011 37.7996 163.561 36.5396 163.561 34.9556V27.2696H165.847V34.9916C165.847 35.9876 166.123 36.7496 166.675 37.2776C167.239 37.7936 167.995 38.0516 168.943 38.0516C169.879 38.0516 170.623 37.7936 171.175 37.2776C171.739 36.7496 172.021 35.9876 172.021 34.9916V27.2696H174.307V34.9556C174.307 36.5396 173.857 37.7996 172.957 38.7356C172.057 39.6596 170.719 40.1216 168.943 40.1216ZM180.6 27.2696H182.814L187.836 39.8516H185.514L184.362 36.9536H179.034L177.9 39.8516H175.56L180.6 27.2696ZM183.732 35.0636L181.698 29.7176L179.664 35.0636H183.732ZM190.351 27.2696H192.637V37.9616H198.685V39.8516H190.351V27.2696ZM200.844 27.2696H203.13V39.8516H200.844V27.2696ZM209.089 29.1596H205.291V27.2696H215.173V29.1596H211.375V39.8516H209.089V29.1596ZM221.367 35.0636L216.795 27.2696H219.225L222.465 32.8676L225.795 27.2696H228.207L223.545 35.0636V39.8516H221.367V35.0636ZM237.571 27.2696H239.947L242.449 36.1616L244.915 27.2696H246.679L249.145 36.1616L251.647 27.2696H254.023L250.441 39.8516H248.317L245.797 31.1036L243.277 39.8516H241.153L237.571 27.2696ZM256.546 27.2696H258.832V39.8516H256.546V27.2696ZM264.791 29.1596H260.993V27.2696H270.875V29.1596H267.077V39.8516H264.791V29.1596ZM273.032 27.2696H275.318V32.4896H281.366V27.2696H283.634V39.8516H281.366V34.3796H275.318V39.8516H273.032V27.2696ZM293.72 27.2696H298.976C300.368 27.2696 301.442 27.6116 302.198 28.2956C302.954 28.9796 303.332 29.9696 303.332 31.2656C303.332 32.1896 303.104 32.9756 302.648 33.6236C302.192 34.2716 301.544 34.7336 300.704 35.0096L303.26 39.8516H300.92L298.49 35.2436H296.006V39.8516H293.72V27.2696ZM298.562 33.3536C299.306 33.3536 299.906 33.1796 300.362 32.8316C300.818 32.4836 301.046 31.9616 301.046 31.2656C301.046 29.8616 300.218 29.1596 298.562 29.1596H296.006V33.3536H298.562ZM305.849 27.2696H314.363V29.1596H308.135V32.6156H312.761V34.5056H308.135V37.9616H314.363V39.8516H305.849V27.2696ZM316.711 27.2696H318.997V37.9616H325.045V39.8516H316.711V27.2696ZM327.205 27.2696H329.491V39.8516H327.205V27.2696ZM337.052 27.2696H339.266L344.288 39.8516H341.966L340.814 36.9536H335.486L334.352 39.8516H332.012L337.052 27.2696ZM340.184 35.0636L338.15 29.7176L336.116 35.0636H340.184ZM346.803 27.2696H352.779C353.931 27.2696 354.825 27.5576 355.461 28.1336C356.109 28.7096 356.433 29.5496 356.433 30.6536C356.433 31.2416 356.289 31.7756 356.001 32.2556C355.725 32.7236 355.353 33.0836 354.885 33.3356C356.193 33.7676 356.847 34.7336 356.847 36.2336C356.847 36.9776 356.679 37.6256 356.343 38.1776C356.007 38.7176 355.551 39.1316 354.975 39.4196C354.411 39.7076 353.781 39.8516 353.085 39.8516H346.803V27.2696ZM352.419 32.5076C352.935 32.5076 353.349 32.3696 353.661 32.0936C353.973 31.8056 354.129 31.3736 354.129 30.7976C354.129 30.1376 353.973 29.6876 353.661 29.4476C353.361 29.1956 352.911 29.0696 352.311 29.0696H349.071V32.5076H352.419ZM352.563 38.0516C353.199 38.0516 353.685 37.9196 354.021 37.6556C354.369 37.3916 354.543 36.9236 354.543 36.2516C354.543 35.5796 354.363 35.0936 354.003 34.7936C353.643 34.4936 353.121 34.3436 352.437 34.3436H349.071V38.0516H352.563ZM359.371 27.2696H361.657V39.8516H359.371V27.2696ZM364.538 27.2696H366.824V37.9616H372.872V39.8516H364.538V27.2696ZM375.031 27.2696H377.317V39.8516H375.031V27.2696ZM383.277 29.1596H379.479V27.2696H389.361V29.1596H385.563V39.8516H383.277V29.1596ZM395.554 35.0636L390.982 27.2696H393.412L396.652 32.8676L399.982 27.2696H402.394L397.732 35.0636V39.8516H395.554V35.0636Z" fill="url(#paint0_linear_1917_629)"/>
<path d="M268.848 0.269561H273.888C275.268 0.269561 276.372 0.635562 277.2 1.36756C278.04 2.09956 278.46 3.10156 278.46 4.37356C278.46 5.69356 278.046 6.70156 277.218 7.39756C276.39 8.08156 275.274 8.42356 273.87 8.42356H271.134V12.8516H268.848V0.269561ZM273.6 6.53356C275.316 6.53356 276.174 5.81356 276.174 4.37356C276.174 2.89756 275.316 2.15956 273.6 2.15956H271.134V6.53356H273.6ZM280.625 0.269561H285.881C287.273 0.269561 288.347 0.611562 289.103 1.29556C289.859 1.97956 290.237 2.96956 290.237 4.26556C290.237 5.18956 290.009 5.97556 289.553 6.62356C289.097 7.27156 288.449 7.73356 287.609 8.00956L290.165 12.8516H287.825L285.395 8.24356H282.911V12.8516H280.625V0.269561ZM285.467 6.35356C286.211 6.35356 286.811 6.17956 287.267 5.83156C287.723 5.48356 287.951 4.96156 287.951 4.26556C287.951 2.86156 287.123 2.15956 285.467 2.15956H282.911V6.35356H285.467ZM298.807 13.1216C297.547 13.1216 296.407 12.8516 295.387 12.3116C294.379 11.7596 293.581 10.9856 292.993 9.98956C292.417 8.99356 292.129 7.85356 292.129 6.56956C292.129 5.28556 292.417 4.14556 292.993 3.14956C293.581 2.15356 294.379 1.37956 295.387 0.827562C296.407 0.275562 297.547 -0.000438333 298.807 -0.000438333C300.055 -0.000438333 301.183 0.275562 302.191 0.827562C303.211 1.37956 304.009 2.15356 304.585 3.14956C305.173 4.14556 305.467 5.28556 305.467 6.56956C305.467 7.85356 305.173 8.99356 304.585 9.98956C304.009 10.9736 303.211 11.7416 302.191 12.2936C301.183 12.8456 300.055 13.1216 298.807 13.1216ZM298.807 11.0516C299.611 11.0516 300.343 10.8716 301.003 10.5116C301.663 10.1396 302.185 9.61756 302.569 8.94556C302.965 8.26156 303.163 7.46956 303.163 6.56956C303.163 5.68156 302.971 4.90156 302.587 4.22956C302.203 3.54556 301.681 3.01756 301.021 2.64556C300.361 2.27356 299.623 2.08756 298.807 2.08756C297.991 2.08756 297.247 2.27356 296.575 2.64556C295.915 3.01756 295.393 3.54556 295.009 4.22956C294.625 4.90156 294.433 5.68156 294.433 6.56956C294.433 7.46956 294.625 8.26156 295.009 8.94556C295.405 9.61756 295.933 10.1396 296.593 10.5116C297.265 10.8716 298.003 11.0516 298.807 11.0516ZM307.992 0.269561H312.204C313.572 0.269561 314.76 0.521562 315.768 1.02556C316.776 1.52956 317.55 2.24956 318.09 3.18556C318.63 4.12156 318.9 5.22556 318.9 6.49756C318.9 8.58556 318.294 10.1696 317.082 11.2496C315.87 12.3176 314.178 12.8516 312.006 12.8516H307.992V0.269561ZM312.042 10.9616C313.506 10.9616 314.628 10.5716 315.408 9.79156C316.2 8.99956 316.596 7.90156 316.596 6.49756C316.596 5.64556 316.422 4.89556 316.074 4.24756C315.726 3.58756 315.228 3.07756 314.58 2.71756C313.932 2.34556 313.164 2.15956 312.276 2.15956H310.278V10.9616H312.042ZM326.713 13.1216C324.937 13.1216 323.593 12.6596 322.681 11.7356C321.781 10.7996 321.331 9.53956 321.331 7.95556V0.269561H323.617V7.99156C323.617 8.98756 323.893 9.74956 324.445 10.2776C325.009 10.7936 325.765 11.0516 326.713 11.0516C327.649 11.0516 328.393 10.7936 328.945 10.2776C329.509 9.74956 329.791 8.98756 329.791 7.99156V0.269561H332.077V7.95556C332.077 9.53956 331.627 10.7996 330.727 11.7356C329.827 12.6596 328.489 13.1216 326.713 13.1216ZM341.24 13.1216C339.92 13.1216 338.75 12.8576 337.73 12.3296C336.71 11.7896 335.918 11.0276 335.354 10.0436C334.79 9.04756 334.508 7.88956 334.508 6.56956C334.508 5.24956 334.79 4.09756 335.354 3.11356C335.918 2.11756 336.71 1.34956 337.73 0.809562C338.75 0.269562 339.92 -0.000438333 341.24 -0.000438333C342.98 -0.000438333 344.432 0.413562 345.596 1.24156V3.41956C344.552 2.53156 343.166 2.08756 341.438 2.08756C340.514 2.08756 339.704 2.27356 339.008 2.64556C338.312 3.00556 337.772 3.52156 337.388 4.19356C337.004 4.86556 336.812 5.65756 336.812 6.56956C336.812 7.48156 337.004 8.27356 337.388 8.94556C337.784 9.61756 338.33 10.1396 339.026 10.5116C339.722 10.8716 340.526 11.0516 341.438 11.0516C342.326 11.0516 343.118 10.9436 343.814 10.7276C344.51 10.4996 345.152 10.1396 345.74 9.64756V11.8256C344.636 12.6896 343.136 13.1216 341.24 13.1216ZM351.252 2.15956H347.454V0.269561H357.336V2.15956H353.538V12.8516H351.252V2.15956ZM362.673 13.1216C361.929 13.1216 361.191 13.0496 360.459 12.9056C359.739 12.7736 359.145 12.5936 358.677 12.3656V10.4036C359.277 10.6916 359.907 10.9076 360.567 11.0516C361.227 11.1956 361.875 11.2676 362.511 11.2676C363.315 11.2676 363.927 11.1176 364.347 10.8176C364.767 10.5176 364.977 10.1036 364.977 9.57556C364.977 9.20356 364.881 8.89756 364.689 8.65756C364.497 8.40556 364.215 8.18956 363.843 8.00956C363.471 7.81756 362.901 7.57156 362.133 7.27156C360.957 6.79156 360.105 6.25756 359.577 5.66956C359.049 5.08156 358.785 4.34956 358.785 3.47356C358.785 2.78956 358.971 2.18356 359.343 1.65556C359.715 1.12756 360.237 0.719562 360.909 0.431561C361.581 0.143562 362.355 -0.000438333 363.231 -0.000438333C363.951 -0.000438333 364.587 0.0595616 365.139 0.179561C365.703 0.287562 366.255 0.461562 366.795 0.701562V2.60956C365.751 2.10556 364.695 1.85356 363.627 1.85356C362.859 1.85356 362.265 1.99756 361.845 2.28556C361.425 2.56156 361.215 2.95756 361.215 3.47356C361.215 3.84556 361.311 4.15156 361.503 4.39156C361.695 4.61956 361.947 4.81756 362.259 4.98556C362.583 5.14156 363.159 5.39356 363.987 5.74156C364.827 6.08956 365.487 6.43156 365.967 6.76756C366.459 7.10356 366.825 7.49956 367.065 7.95556C367.317 8.39956 367.443 8.94556 367.443 9.59356C367.443 10.7096 367.041 11.5796 366.237 12.2036C365.433 12.8156 364.245 13.1216 362.673 13.1216Z" fill="url(#paint1_linear_1917_629)"/>
<defs>
<linearGradient id="paint0_linear_1917_629" x1="-7.22168" y1="19.8516" x2="409.613" y2="19.8516" gradientUnits="userSpaceOnUse">
<stop offset="1" stop-color="#202020"/>
</linearGradient>
<linearGradient id="paint1_linear_1917_629" x1="-7.22168" y1="19.8516" x2="409.613" y2="19.8516" gradientUnits="userSpaceOnUse">
<stop offset="1" stop-color="#5F65BB"/>
</linearGradient>
</defs>
</svg>
